<svg id="Capa_1" data-name="Capa 1" xmlns="http://www.w3.org/2000/svg" viewBox="0 0 512 512"><defs><style>.cls-1{fill:#fff;}</style></defs><title>facebook3</title><path class="cls-1" d="M256,375.33a10,10,0,0,0-10,10v.16a10,10,0,0,0,20,0v-.16A10,10,0,0,0,256,375.33Z"/><path class="cls-1" d="M414,0H98A98.11,98.11,0,0,0,0,98V414a98.11,98.11,0,0,0,98,98H256a10,10,0,0,0,10-10V424.5a10,10,0,0,0-20,0V492H98a78.09,78.09,0,0,1-78-78V98A78.09,78.09,0,0,1,98,20H414a78.09,78.09,0,0,1,78,78V414a78.09,78.09,0,0,1-78,78H350V315.5h58a10,10,0,0,0,9.95-9l7.19-71.45a10,10,0,0,0-9.95-11H350V186.53c0-6.8,2.16-9.32,8-9.32h56.74a10,10,0,0,0,10-10V97.55a10,10,0,0,0-10-10H340.21c-42.23,0-64.62,18.55-76,34.1C248.37,143.41,246,169.11,246,182.49v42H197a10,10,0,0,0-10,10v71a10,10,0,0,0,10,10h49V344a10,10,0,0,0,20,0V305.5a10,10,0,0,0-10-10H207v-51h49a10,10,0,0,0,10-10v-52c0-22.54,7.23-74.94,74.21-74.94h64.51v49.66H358c-12.91,0-28,7.68-28,29.31V234a10,10,0,0,0,10,10h64.12l-5.18,51.46H340a10,10,0,0,0-10,10V502a10,10,0,0,0,10,10h74a98.11,98.11,0,0,0,98-98V98A98.11,98.11,0,0,0,414,0Z"/><path class="cls-1" d="M58,102.5a10,10,0,0,0-10,10V196a10,10,0,0,0,20,0V112.5A10,10,0,0,0,58,102.5Z"/><path class="cls-1" d="M58,229.38a10,10,0,0,0-10,10v.12a10,10,0,0,0,20,0v-.12A10,10,0,0,0,58,229.38Z"/></svg>