<svg id="Слой_1" data-name="Слой 1" xmlns="http://www.w3.org/2000/svg" viewBox="0 0 512 512"><defs><style>.cls-1{fill:#fff;}</style></defs><title>telegram3</title><path class="cls-1" d="M172.68,265.83l36,90L255.56,309l80.18,63.73,58.19-250-290,116.41Zm-22.62-27,138.25-55.48L178.37,249.84ZM313,188.28l-91.76,84-11,41.6-20.41-51Zm-84.89,124.2,5.56-21,8.58,6.82Zm97.24,30.24-83.49-66.36,125.7-115Z" transform="translate(0 0.5)"/><path class="cls-1" d="M373.41-.5H138.59C62.17-.5,0,61.67,0,138.09V372.91C0,449.33,62.17,511.5,138.59,511.5H373.41C449.83,511.5,512,449.33,512,372.91V138.09C512,61.67,449.83-.5,373.41-.5ZM482,372.91A108.69,108.69,0,0,1,373.41,481.48H138.59A108.69,108.69,0,0,1,30,372.91V138.09A108.69,108.69,0,0,1,138.59,29.52H373.41A108.69,108.69,0,0,1,482,138.09Z" transform="translate(0 0.5)"/></svg>