<svg id="Слой_1" data-name="Слой 1" xmlns="http://www.w3.org/2000/svg" viewBox="0 0 511.5 511.5"><defs><style>.cls-1{fill:#fff;}</style></defs><title>twitter3</title><path class="cls-1" d="M414.09,160.15c-20.1.92-19.67.85-21.94,1l11.91-34s-37.17,13.67-46.59,16.11c-24.74-22.23-61.52-23.22-87.81-7.06-21.54,13.24-33.09,36-29.24,62.54-41.9-5.81-77.21-25.68-105.09-59.16L126.51,129l-6.58,12.09a73.06,73.06,0,0,0-7.79,49.22A70.64,70.64,0,0,0,119,209.56l-7.56-2.93-.9,12.63c-.91,12.84,3.36,27.83,11.43,40.09a71.77,71.77,0,0,0,8.91,11l-3.91-.6,4.77,14.48c6.27,19,19.29,33.75,36.19,41.93C151,333.3,137.41,337.87,115,345.24L94.5,352l18.94,10.35c7.22,3.95,32.73,17.13,57.93,21.09,56,8.79,119.12,1.63,161.59-36.62,35.77-32.22,47.51-78,45.07-125.73a29.79,29.79,0,0,1,5.57-19.4C391.53,191.08,414,160.22,414.09,160.15Zm-45.46,30.3A48.51,48.51,0,0,0,359.35,222c2.46,48.11-10.63,85.41-38.91,110.88-33,29.75-86.31,41.42-146.17,32-10.84-1.7-22-5.51-31.31-9.31,18.78-6.47,33.29-12.23,56.72-23.32l32.71-15.48-36.11-2.31c-17.3-1.11-31.7-9.49-40.56-23.1a64.46,64.46,0,0,0,13.75-2.29l34.44-9.59L169.18,271a51.74,51.74,0,0,1-31.59-22A53.13,53.13,0,0,1,130.74,234a86.44,86.44,0,0,0,14.09,2.25L177,239.38l-25.47-19.87C133.16,205.2,125.8,183.7,131.19,163c57.27,59.4,124.52,54.93,131.29,56.5C261,205.06,261,205,260.56,203.65c-8.67-30.64,10.33-46.2,18.89-51.47,17.9-11,46.31-12.65,66,5.47a16.75,16.75,0,0,0,15.38,4.11,130.12,130.12,0,0,0,12.67-3.85L365.4,181h10.31Z" transform="translate(0.75)"/><path class="cls-1" d="M372.29,0H137.71C61.36,0-.75,62.11-.75,138.46V373.05c0,76.34,62.11,138.45,138.46,138.45H372.3c76.34,0,138.45-62.11,138.45-138.45V138.46C510.75,62.11,448.64,0,372.29,0ZM480.76,373.05A108.59,108.59,0,0,1,372.29,481.51H137.71A108.59,108.59,0,0,1,29.24,373.05V138.46A108.59,108.59,0,0,1,137.71,30H372.3A108.59,108.59,0,0,1,480.76,138.46Z" transform="translate(0.75)"/></svg>