<svg width="24" height="13" viewBox="0 0 24 13" fill="none" xmlns="http://www.w3.org/2000/svg">
<path d="M23.124 4.17079L19.245 0.292786C19.0575 0.105315 18.8032 0 18.538 0C18.2728 0 18.0185 0.105315 17.831 0.292786C17.6435 0.480314 17.5382 0.734622 17.5382 0.999786C17.5382 1.26495 17.6435 1.51926 17.831 1.70679L21.386 5.26379H1C0.734784 5.26379 0.48043 5.36914 0.292893 5.55668C0.105357 5.74422 0 5.99857 0 6.26379H0C0 6.529 0.105357 6.78336 0.292893 6.97089C0.48043 7.15843 0.734784 7.26379 1 7.26379H21.447L17.831 10.8788C17.738 10.9717 17.6643 11.0819 17.6139 11.2033C17.5636 11.3247 17.5377 11.4549 17.5377 11.5863C17.5377 11.7177 17.5636 11.8478 17.6139 11.9692C17.6643 12.0906 17.738 12.2009 17.831 12.2938C18.0185 12.4813 18.2728 12.5866 18.538 12.5866C18.8032 12.5866 19.0575 12.4813 19.245 12.2938L23.125 8.41479C23.6859 7.85095 24.0007 7.08791 24.0006 6.29258C24.0004 5.49724 23.6852 4.73435 23.124 4.17079Z" fill="white"/>
</svg>
