<svg width="40" height="32" viewBox="0 0 40 32" fill="none" xmlns="http://www.w3.org/2000/svg">
<path d="M0.06353 16.1426C-0.0653 15.831 0.00641632 15.4724 0.245171 15.2342L15.2455 0.23394C15.5765 -0.0858318 16.1041 -0.0766128 16.4239 0.254409C16.7357 0.577385 16.7357 1.08935 16.4239 1.41225L2.84522 14.9909H39.1676C39.6278 14.991 40.001 15.3641 40.001 15.8243C40.001 16.2846 39.6278 16.6577 39.1676 16.6577H2.84522L16.4221 30.2346C16.7532 30.5544 16.7624 31.0819 16.4426 31.413C16.1228 31.744 15.5953 31.7532 15.2642 31.4335C15.2573 31.4268 15.2505 31.42 15.2438 31.413L0.243454 16.4127C0.166424 16.3353 0.105247 16.2436 0.06353 16.1426Z" fill="#2196F3"/>
<path d="M15.8338 31.6581C16.2941 31.659 16.6678 31.2865 16.6687 30.8262C16.6691 30.6044 16.581 30.3915 16.4239 30.2348L2.01184 15.8245L16.4239 1.41425C16.7436 1.08323 16.7344 0.555636 16.4034 0.235864C16.0804 -0.0760172 15.5684 -0.0760172 15.2455 0.235864L0.245243 15.2362C-0.0800762 15.5616 -0.0800762 16.0891 0.245243 16.4146L15.2455 31.4149C15.4016 31.5706 15.6132 31.6581 15.8338 31.6581Z" fill="white"/>
<path d="M0.833542 16.6579H39.1676C39.6278 16.6579 40.001 16.2848 40.001 15.8246C40.001 15.3643 39.6278 14.9912 39.1676 14.9912H0.833466C0.373222 14.9912 9.15527e-05 15.3643 9.15527e-05 15.8246C0.000167847 16.2848 0.373299 16.6579 0.833542 16.6579Z" fill="white"/>
</svg>
