<svg width="41" height="32" viewBox="0 0 41 32" fill="none" xmlns="http://www.w3.org/2000/svg">
<path d="M39.9433 16.1426C40.0721 15.831 40.0004 15.4724 39.7617 15.2342L24.7614 0.23394C24.4303 -0.0858318 23.9028 -0.0766128 23.583 0.254409C23.2711 0.577385 23.2711 1.08935 23.583 1.41225L37.1616 14.9909H0.839236C0.378992 14.991 0.00585938 15.3641 0.00585938 15.8243C0.00585938 16.2846 0.378992 16.6577 0.839236 16.6577H37.1616L23.5847 30.2346C23.2537 30.5544 23.2445 31.0819 23.5642 31.413C23.884 31.744 24.4115 31.7532 24.7426 31.4335C24.7496 31.4268 24.7564 31.42 24.7631 31.413L39.7634 16.4127C39.8404 16.3353 39.9016 16.2436 39.9433 16.1426Z" fill="#2196F3"/>
<path d="M24.1728 31.6579C23.7125 31.6588 23.3388 31.2862 23.3379 30.826C23.3375 30.6041 23.4256 30.3912 23.5827 30.2345L37.9948 15.8243L23.5827 1.414C23.263 1.08298 23.2722 0.555392 23.6032 0.23562C23.9262 -0.0762614 24.4381 -0.0762614 24.761 0.23562L39.7613 15.2359C40.0867 15.5613 40.0867 16.0888 39.7613 16.4143L24.761 31.4146C24.6049 31.5704 24.3934 31.6579 24.1728 31.6579Z" fill="white"/>
<path d="M39.1733 16.6576H0.839236C0.378992 16.6576 0.00585938 16.2846 0.00585938 15.8243C0.00585938 15.3641 0.378992 14.991 0.839236 14.991H39.1734C39.6336 14.991 40.0067 15.3641 40.0067 15.8243C40.0067 16.2846 39.6335 16.6576 39.1733 16.6576Z" fill="white"/>
</svg>
