<svg width="40" height="32" viewBox="0 0 40 32" fill="none" xmlns="http://www.w3.org/2000/svg">
<path d="M0.0625534 16.1426C-0.0662766 15.831 0.00543976 15.4724 0.244194 15.2342L15.2445 0.23394C15.5755 -0.0858318 16.1031 -0.0766128 16.4229 0.254409C16.7348 0.577385 16.7348 1.08935 16.4229 1.41225L2.84425 14.9909H39.1666C39.6269 14.991 40 15.3641 40 15.8243C40 16.2846 39.6269 16.6577 39.1666 16.6577H2.84425L16.4212 30.2346C16.7522 30.5544 16.7614 31.0819 16.4416 31.413C16.1219 31.744 15.5944 31.7532 15.2633 31.4335C15.2563 31.4268 15.2495 31.42 15.2428 31.413L0.242477 16.4127C0.165447 16.3353 0.104271 16.2436 0.0625534 16.1426Z" fill="#2196F3"/>
<path d="M15.8331 31.6579C16.2934 31.6588 16.6671 31.2862 16.668 30.826C16.6684 30.6041 16.5802 30.3912 16.4231 30.2345L2.01111 15.8243L16.4231 1.414C16.7429 1.08298 16.7337 0.555392 16.4026 0.23562C16.0797 -0.0762614 15.5677 -0.0762614 15.2448 0.23562L0.244511 15.2359C-0.0808086 15.5613 -0.0808086 16.0888 0.244511 16.4143L15.2448 31.4146C15.4009 31.5704 15.6125 31.6579 15.8331 31.6579Z" fill="white"/>
<path d="M0.832565 16.6576H39.1666C39.6269 16.6576 40 16.2846 40 15.8243C40 15.3641 39.6269 14.991 39.1666 14.991H0.832489C0.372246 14.991 -0.00088501 15.3641 -0.00088501 15.8243C-0.000808716 16.2846 0.372322 16.6576 0.832565 16.6576Z" fill="white"/>
</svg>
