<svg width="1332" height="758" viewBox="0 0 1332 758" fill="none" xmlns="http://www.w3.org/2000/svg">
<path d="M71.2705 753.502L59.2414 741.04L54.4636 757.688L71.2705 753.502ZM473.77 459.002L473.95 460.491L474.013 460.484L474.076 460.471L473.77 459.002ZM54.3974 746.368C50.5467 744.83 46.9047 743.17 43.475 741.396L42.0966 744.06C45.6177 745.882 49.3486 747.582 53.2846 749.154L54.3974 746.368ZM33.1622 735.295C29.7356 732.976 26.5971 730.518 23.7512 727.932L21.7341 730.153C24.6918 732.84 27.9435 735.386 31.481 737.779L33.1622 735.295ZM15.6427 719.234C13.1546 716.043 11.0398 712.708 9.30438 709.244L6.62217 710.588C8.44976 714.236 10.6719 717.738 13.277 721.079L15.6427 719.234ZM5.1631 698.178C4.19618 694.401 3.62658 690.5 3.46466 686.491L0.467101 686.612C0.637355 690.827 1.23671 694.937 2.25679 698.922L5.1631 698.178ZM4.13308 674.67C4.70049 670.884 5.60747 667.02 6.86326 663.089L4.00552 662.176C2.70371 666.251 1.75875 670.272 1.16622 674.226L4.13308 674.67ZM11.2689 651.979C12.9106 648.506 14.8156 644.991 16.9894 641.445L14.4318 639.877C12.2046 643.51 10.2472 647.12 8.55654 650.698L11.2689 651.979ZM23.7407 631.495C26.0613 628.376 28.5871 625.239 31.3214 622.089L29.056 620.123C26.2748 623.326 23.7015 626.522 21.3337 629.705L23.7407 631.495ZM39.5989 613.167C42.3225 610.409 45.2061 607.647 48.2516 604.882L46.2351 602.661C43.1509 605.46 40.228 608.261 37.4645 611.059L39.5989 613.167ZM57.3664 597.004C60.4269 594.481 63.6235 591.96 66.9578 589.443L65.1502 587.048C61.783 589.591 58.5528 592.138 55.4583 594.689L57.3664 597.004ZM76.6932 582.38C79.9278 580.123 83.275 577.871 86.7359 575.627L85.1035 573.11C81.615 575.372 78.2397 577.643 74.9764 579.92L76.6932 582.38ZM97.0831 569.145C100.44 567.112 103.893 565.087 107.442 563.071L105.96 560.463C102.388 562.492 98.911 564.531 95.5294 566.579L97.0831 569.145ZM118.213 557.14C121.667 555.295 125.204 553.459 128.825 551.634L127.474 548.955C123.833 550.791 120.275 552.638 116.8 554.494L118.213 557.14ZM139.878 546.216C143.421 544.528 147.037 542.85 150.726 541.183L149.491 538.449C145.783 540.124 142.149 541.811 138.588 543.508L139.878 546.216ZM161.955 536.242C165.586 534.685 169.284 533.139 173.049 531.604L171.917 528.826C168.136 530.367 164.421 531.92 160.773 533.484L161.955 536.242ZM184.372 527.102C188.099 525.657 191.888 524.222 195.74 522.799L194.7 519.985C190.834 521.413 187.03 522.854 183.287 524.305L184.372 527.102ZM207.095 518.702C210.929 517.351 214.821 516.012 218.771 514.685L217.816 511.841C213.852 513.173 209.946 514.517 206.098 515.873L207.095 518.702ZM230.113 510.961C233.946 509.731 237.831 508.512 241.77 507.305L240.891 504.437C236.94 505.648 233.042 506.87 229.196 508.105L230.113 510.961ZM253.431 503.812C257.243 502.696 261.102 501.591 265.008 500.498L264.2 497.609C260.282 498.705 256.411 499.814 252.588 500.933L253.431 503.812ZM276.87 497.252C280.716 496.224 284.605 495.206 288.54 494.2L287.796 491.294C283.852 492.303 279.951 493.323 276.095 494.354L276.87 497.252ZM300.272 491.267C304.226 490.3 308.222 489.345 312.262 488.401L311.58 485.48C307.53 486.426 303.523 487.383 299.56 488.352L300.272 491.267ZM323.982 485.724C327.885 484.853 331.826 483.992 335.806 483.143L335.18 480.209C331.191 481.06 327.24 481.923 323.328 482.797L323.982 485.724ZM347.864 480.629C351.769 479.833 355.71 479.049 359.688 478.275L359.115 475.33C355.129 476.106 351.179 476.892 347.266 477.689L347.864 480.629ZM371.553 476.019C375.543 475.278 379.569 474.548 383.631 473.829L383.108 470.875C379.038 471.595 375.004 472.327 371.005 473.07L371.553 476.019ZM395.615 471.757C399.538 471.095 403.494 470.444 407.481 469.803L407.005 466.841C403.01 467.483 399.047 468.136 395.116 468.799L395.615 471.757ZM419.542 467.911C423.578 467.294 427.646 466.687 431.746 466.091L431.315 463.122C427.207 463.719 423.132 464.327 419.088 464.945L419.542 467.911ZM443.582 464.415C447.557 463.866 451.561 463.327 455.596 462.799L455.206 459.824C451.165 460.353 447.154 460.893 443.172 461.443L443.582 464.415ZM467.787 461.245C469.834 460.991 471.888 460.74 473.95 460.491L473.591 457.513C471.526 457.762 469.468 458.013 467.418 458.267L467.787 461.245ZM474.076 460.471C476.039 460.062 478.003 459.653 479.969 459.243L479.355 456.306C477.391 456.716 475.427 457.125 473.465 457.533L474.076 460.471ZM491.77 456.766C495.707 455.936 499.647 455.102 503.59 454.263L502.965 451.329C499.024 452.167 495.086 453.001 491.151 453.831L491.77 456.766ZM515.425 451.734C519.368 450.887 523.314 450.036 527.262 449.18L526.626 446.248C522.681 447.103 518.737 447.954 514.795 448.8L515.425 451.734ZM539.052 446.614C542.984 445.754 546.917 444.89 550.851 444.022L550.204 441.093C546.272 441.96 542.341 442.824 538.411 443.683L539.052 446.614ZM562.655 441.406C566.59 440.529 570.525 439.649 574.461 438.764L573.803 435.837C569.87 436.721 565.936 437.601 562.003 438.477L562.655 441.406ZM586.25 436.103C590.179 435.212 594.107 434.317 598.034 433.419L597.364 430.494C593.439 431.392 589.513 432.287 585.587 433.177L586.25 436.103ZM609.812 430.711C613.737 429.804 617.66 428.894 621.582 427.979L620.901 425.058C616.981 425.972 613.06 426.881 609.137 427.788L609.812 430.711ZM633.355 425.223C637.281 424.299 641.206 423.371 645.128 422.44L644.435 419.521C640.515 420.452 636.592 421.379 632.668 422.302L633.355 425.223ZM656.886 419.635C660.803 418.696 664.716 417.754 668.627 416.808L667.921 413.892C664.013 414.837 660.102 415.779 656.187 416.718L656.886 419.635ZM680.355 413.957C684.282 412.998 688.205 412.035 692.124 411.069L691.405 408.156C687.489 409.122 683.568 410.084 679.643 411.043L680.355 413.957ZM703.867 408.16C707.776 407.187 711.681 406.21 715.581 405.23L714.85 402.32C710.952 403.3 707.049 404.276 703.142 405.249L703.867 408.16ZM727.265 402.279C731.185 401.284 735.1 400.285 739.008 399.283L738.263 396.377C734.357 397.379 730.445 398.376 726.527 399.371L727.265 402.279ZM750.74 396.261C754.644 395.25 758.541 394.236 762.431 393.219L761.672 390.316C757.784 391.333 753.889 392.347 749.988 393.357L750.74 396.261ZM774.081 390.157C777.985 389.125 781.881 388.09 785.77 387.052L784.996 384.154C781.11 385.191 777.216 386.225 773.314 387.256L774.081 390.157ZM797.491 383.907C801.39 382.855 805.28 381.8 809.161 380.742L808.372 377.848C804.494 378.905 800.606 379.959 796.71 381.01L797.491 383.907ZM820.776 377.558C824.659 376.488 828.533 375.414 832.396 374.338L831.591 371.448C827.73 372.524 823.859 373.596 819.979 374.666L820.776 377.558ZM844.107 371.057C848 369.96 851.882 368.86 855.752 367.757L854.93 364.871C851.063 365.974 847.184 367.073 843.293 368.169L844.107 371.057ZM867.329 364.438C871.19 363.325 875.038 362.209 878.874 361.09L878.034 358.21C874.201 359.328 870.356 360.444 866.498 361.556L867.329 364.438ZM890.57 357.658C894.455 356.511 898.326 355.361 902.184 354.208L901.325 351.334C897.47 352.486 893.602 353.635 889.72 354.781L890.57 357.658ZM913.713 350.74C917.553 349.578 921.378 348.413 925.188 347.245L924.309 344.377C920.503 345.544 916.681 346.708 912.844 347.869L913.713 350.74ZM936.858 343.645C940.731 342.442 944.588 341.236 948.427 340.027L947.526 337.165C943.69 338.373 939.837 339.578 935.968 340.78L936.858 343.645ZM959.894 336.392C963.72 335.171 967.528 333.947 971.317 332.72L970.393 329.866C966.608 331.091 962.804 332.314 958.982 333.534L959.894 336.392ZM982.941 328.93C986.795 327.663 990.63 326.394 994.443 325.123L993.494 322.277C989.685 323.547 985.855 324.815 982.005 326.08L982.941 328.93ZM1005.82 321.299C1009.64 320.005 1013.45 318.707 1017.23 317.407L1016.25 314.57C1012.48 315.868 1008.68 317.165 1004.86 318.458L1005.82 321.299ZM1028.77 313.401C1032.6 312.063 1036.4 310.723 1040.17 309.379L1039.17 306.553C1035.4 307.894 1031.6 309.233 1027.78 310.569L1028.77 313.401ZM1051.42 305.342C1055.26 303.952 1059.07 302.558 1062.86 301.163L1061.82 298.348C1058.04 299.742 1054.23 301.133 1050.4 302.522L1051.42 305.342ZM1074.27 296.911C1078.05 295.491 1081.8 294.069 1085.51 292.644L1084.44 289.843C1080.73 291.265 1076.99 292.685 1073.22 294.103L1074.27 296.911ZM1096.67 288.32C1100.51 286.816 1104.32 285.309 1108.09 283.799L1106.98 281.014C1103.21 282.521 1099.41 284.025 1095.58 285.527L1096.67 288.32ZM1119.3 279.263C1123 277.749 1126.66 276.232 1130.29 274.713L1129.13 271.946C1125.51 273.462 1121.86 274.976 1118.16 276.487L1119.3 279.263ZM1141.59 269.915C1145.35 268.299 1149.06 266.682 1152.73 265.062L1151.52 262.317C1147.86 263.933 1144.16 265.547 1140.41 267.159L1141.59 269.915ZM1163.6 260.195C1167.35 258.491 1171.06 256.785 1174.71 255.076L1173.44 252.359C1169.8 254.062 1166.1 255.764 1162.36 257.464L1163.6 260.195ZM1185.7 249.846C1189.31 248.1 1192.87 246.353 1196.37 244.603L1195.03 241.92C1191.54 243.663 1188 245.405 1184.4 247.145L1185.7 249.846ZM1207.31 239.027C1210.96 237.135 1214.54 235.241 1218.04 233.344L1216.62 230.705C1213.12 232.593 1209.56 234.48 1205.93 236.365L1207.31 239.027ZM1228.4 227.625C1232.07 225.553 1235.66 223.479 1239.16 221.403L1237.63 218.823C1234.15 220.887 1230.58 222.951 1226.92 225.012L1228.4 227.625ZM1249.39 215.17C1252.91 212.972 1256.32 210.773 1259.63 208.572L1257.97 206.073C1254.68 208.258 1251.29 210.443 1247.8 212.626L1249.39 215.17ZM1269.67 201.673C1273.01 199.295 1276.22 196.916 1279.32 194.535L1277.49 192.158C1274.42 194.514 1271.24 196.872 1267.93 199.229L1269.67 201.673ZM1288.9 186.809C1292.05 184.146 1295.04 181.482 1297.86 178.816L1295.8 176.635C1293.02 179.26 1290.07 181.888 1286.96 184.519L1288.9 186.809ZM1306.52 170.067C1309.37 166.965 1311.99 163.859 1314.38 160.752L1312 158.925C1309.67 161.955 1307.11 164.993 1304.31 168.036L1306.52 170.067ZM1321.21 150.779C1323.43 147.075 1325.3 143.367 1326.81 139.656L1324.03 138.527C1322.59 142.081 1320.78 145.651 1318.63 149.235L1321.21 150.779ZM1330.34 127.893C1331.13 123.795 1331.45 119.701 1331.28 115.614L1328.29 115.735C1328.44 119.582 1328.14 123.445 1327.39 127.326L1330.34 127.893ZM1329.29 103.315C1328.2 99.523 1326.68 95.7533 1324.7 92.0075L1322.05 93.4054C1323.93 96.9802 1325.38 100.559 1326.4 104.141L1329.29 103.315ZM1318.1 81.7165C1315.69 78.5347 1312.94 75.3719 1309.85 72.2285L1307.71 74.3326C1310.72 77.3927 1313.38 80.4587 1315.71 83.5289L1318.1 81.7165ZM1301.19 64.2341C1298.11 61.6316 1294.78 59.0418 1291.2 56.465L1289.45 58.8993C1292.97 61.4347 1296.23 63.9773 1299.25 66.5263L1301.19 64.2341ZM1281.55 49.9362C1278.16 47.7692 1274.58 45.6112 1270.81 43.4626L1269.32 46.0685C1273.05 48.1942 1276.59 50.3267 1279.94 52.4655L1281.55 49.9362ZM1260.45 37.821C1256.97 36.0121 1253.36 34.21 1249.61 32.4147L1248.32 35.1205C1252.04 36.9021 1255.62 38.6894 1259.06 40.4821L1260.45 37.821ZM1238.2 27.1617C1234.75 25.6324 1231.19 24.1082 1227.54 22.5893L1226.39 25.36C1230.02 26.8703 1233.56 28.3852 1236.99 29.9045L1238.2 27.1617ZM1216.24 18.0483C1212.4 16.5514 1208.46 15.0597 1204.41 13.5735L1203.38 16.3897C1207.41 17.8694 1211.33 19.354 1215.15 20.8434L1216.24 18.0483ZM1193.54 9.68335C1189.84 8.39079 1186.05 7.10241 1182.18 5.81829L1181.23 8.66555C1185.09 9.94504 1188.86 11.2285 1192.55 12.5159L1193.54 9.68335ZM1170.33 1.97884C1168.31 1.34104 1166.27 0.704331 1164.21 0.0687157L1163.33 2.93519C1165.38 3.56884 1167.41 4.20353 1169.42 4.83925L1170.33 1.97884Z" fill="white"/>
</svg>
