<svg width="346" height="610" viewBox="0 0 346 610" fill="none" xmlns="http://www.w3.org/2000/svg">
<path d="M253.771 541.502L240.989 529.813L237.257 546.727L253.771 541.502ZM341.271 137.002L339.825 136.603L339.809 136.659L339.798 136.716L341.271 137.002ZM235.876 536.134C231.915 535.324 228.011 534.552 224.165 533.817L223.602 536.764C227.435 537.496 231.326 538.266 235.275 539.073L235.876 536.134ZM212.8 531.723C208.833 531.019 204.93 530.357 201.091 529.734L200.611 532.695C204.435 533.315 208.323 533.976 212.276 534.677L212.8 531.723ZM188.906 527.858C184.918 527.278 181.003 526.742 177.16 526.25L176.779 529.226C180.605 529.716 184.503 530.249 188.475 530.827L188.906 527.858ZM165.846 524.903C161.635 524.44 157.516 524.032 153.489 523.676L153.225 526.664C157.231 527.018 161.328 527.425 165.518 527.885L165.846 524.903ZM141.498 522.75C137.594 522.494 133.782 522.29 130.061 522.136L129.937 525.133C133.633 525.287 137.421 525.49 141.302 525.744L141.498 522.75ZM117.723 521.799C113.617 521.747 109.634 521.76 105.77 521.834L105.827 524.834C109.658 524.76 113.61 524.747 117.685 524.799L117.723 521.799ZM94.1694 522.256C89.8961 522.488 85.7862 522.8 81.8362 523.187L82.1289 526.173C86.0338 525.79 90.1003 525.481 94.3321 525.251L94.1694 522.256ZM70.462 524.568C66.1491 525.199 62.0559 525.927 58.1767 526.744L58.7948 529.68C62.6097 528.876 66.6413 528.159 70.896 527.537L70.462 524.568ZM46.8975 529.53C42.704 530.734 38.8168 532.055 35.2261 533.478L36.3312 536.267C39.8242 534.883 43.6183 533.593 47.725 532.414L46.8975 529.53ZM24.2554 538.622C20.4521 540.731 17.1225 542.983 14.248 545.343L16.1516 547.661C18.8719 545.428 22.0488 543.276 25.7106 541.245L24.2554 538.622ZM5.84189 554.238C3.26346 557.902 1.56842 561.701 0.712177 565.526L3.63971 566.181C4.40278 562.773 5.92443 559.333 8.29531 555.964L5.84189 554.238ZM0.852017 577.975C1.83035 581.924 3.68398 585.704 6.30252 589.18L8.69869 587.375C6.29992 584.191 4.6362 580.775 3.76399 577.254L0.852017 577.975ZM15.1213 597.713C18.2574 599.986 21.8301 601.994 25.7909 603.675L26.9624 600.913C23.1949 599.315 19.8221 597.415 16.8819 595.284L15.1213 597.713ZM37.4206 607.372C41.2295 608.226 45.2758 608.818 49.5346 609.113L49.7416 606.12C45.6283 605.835 41.7322 605.264 38.0765 604.445L37.4206 607.372ZM61.4888 609.16C65.3338 608.937 69.3111 608.484 73.4065 607.781L72.8992 604.824C68.9112 605.509 65.0451 605.948 61.3145 606.165L61.4888 609.16ZM85.2941 605.109C89.0075 604.08 92.7989 602.851 96.6595 601.407L95.6085 598.597C91.8281 600.011 88.1201 601.213 84.4931 602.218L85.2941 605.109ZM107.706 596.762C111.257 595.105 114.856 593.267 118.498 591.239L117.038 588.618C113.458 590.612 109.922 592.417 106.437 594.044L107.706 596.762ZM128.661 585.144C131.965 583.02 135.298 580.738 138.655 578.293L136.888 575.868C133.577 578.28 130.293 580.529 127.039 582.62L128.661 585.144ZM148.068 571.046C151.087 568.596 154.123 566.011 157.171 563.287L155.171 561.05C152.158 563.743 149.159 566.297 146.178 568.716L148.068 571.046ZM166.042 554.992C168.768 552.329 171.502 549.552 174.242 546.658L172.063 544.596C169.35 547.462 166.644 550.21 163.946 552.845L166.042 554.992ZM182.475 537.621C185.02 534.722 187.568 531.719 190.118 528.61L187.798 526.708C185.27 529.791 182.743 532.769 180.221 535.642L182.475 537.621ZM197.458 519.366C199.905 516.186 202.352 512.905 204.796 509.522L202.365 507.765C199.937 511.124 197.509 514.381 195.08 517.537L197.458 519.366ZM211.56 499.893C213.73 496.713 215.899 493.451 218.063 490.105L215.544 488.476C213.393 491.801 211.238 495.043 209.082 498.201L211.56 499.893ZM224.545 479.811C226.616 476.433 228.683 472.976 230.745 469.437L228.152 467.927C226.102 471.446 224.047 474.884 221.988 478.243L224.545 479.811ZM236.471 459.375C238.375 455.95 240.273 452.454 242.165 448.887L239.515 447.481C237.632 451.032 235.743 454.51 233.849 457.917L236.471 459.375ZM247.824 437.966C249.579 434.499 251.328 430.969 253.071 427.373L250.371 426.065C248.636 429.645 246.895 433.16 245.147 436.611L247.824 437.966ZM258.057 416.867C259.713 413.305 261.362 409.683 263.005 405.999L260.264 404.778C258.629 408.447 256.986 412.055 255.337 415.603L258.057 416.867ZM267.91 394.765C269.463 391.132 271.009 387.443 272.548 383.696L269.773 382.557C268.24 386.29 266.699 389.966 265.151 393.586L267.91 394.765ZM276.866 372.985C278.299 369.363 279.724 365.691 281.143 361.967L278.339 360.899C276.925 364.611 275.504 368.272 274.076 371.881L276.866 372.985ZM285.375 350.638C286.778 346.81 288.174 342.929 289.562 338.996L286.733 337.998C285.349 341.92 283.957 345.789 282.558 349.606L285.375 350.638ZM293.379 327.979C294.614 324.352 295.841 320.682 297.062 316.968L294.212 316.031C292.995 319.735 291.77 323.396 290.539 327.012L293.379 327.979ZM300.702 305.695C301.909 301.893 303.107 298.047 304.298 294.156L301.43 293.278C300.242 297.159 299.046 300.995 297.843 304.787L300.702 305.695ZM307.848 282.35C308.956 278.598 310.057 274.805 311.151 270.973L308.266 270.15C307.175 273.973 306.076 277.757 304.971 281.5L307.848 282.35ZM314.272 259.851C315.306 256.106 316.333 252.324 317.352 248.505L314.454 247.731C313.436 251.543 312.412 255.316 311.38 259.053L314.272 259.851ZM320.389 236.932C321.395 233.037 322.393 229.103 323.383 225.131L320.472 224.405C319.484 228.369 318.488 232.295 317.485 236.183L320.389 236.932ZM326.331 213.1C327.228 209.372 328.119 205.612 329.004 201.819L326.082 201.138C325.199 204.924 324.31 208.677 323.414 212.397L326.331 213.1ZM331.594 190.526C332.451 186.729 333.301 182.9 334.145 179.039L331.214 178.399C330.372 182.253 329.523 186.075 328.668 189.865L331.594 190.526ZM336.654 167.357C337.484 163.43 338.307 159.47 339.122 155.478L336.183 154.878C335.369 158.864 334.547 162.816 333.719 166.736L336.654 167.357ZM341.547 143.401C341.948 141.372 342.346 139.334 342.743 137.288L339.798 136.716C339.402 138.759 339.004 140.794 338.604 142.82L341.547 143.401ZM342.717 137.401C343.25 135.467 343.693 133.437 344.048 131.324L341.089 130.828C340.75 132.848 340.328 134.777 339.825 136.603L342.717 137.401ZM345.109 118.966C345.165 115.006 344.981 110.871 344.559 106.619L341.574 106.915C341.985 111.064 342.164 115.085 342.109 118.923L345.109 118.966ZM342.755 94.4387C341.983 90.4907 341.022 86.4884 339.873 82.472L336.989 83.2971C338.115 87.2323 339.055 91.1515 339.811 95.0145L342.755 94.4387ZM336.002 70.7887C334.564 66.9813 332.956 63.1953 331.178 59.4654L328.47 60.7561C330.211 64.4087 331.786 68.1177 333.196 71.8487L336.002 70.7887ZM325.404 48.5936C323.32 45.0587 321.071 41.6109 318.657 38.2839L316.229 40.046C318.585 43.2926 320.782 46.6604 322.82 50.1171L325.404 48.5936ZM310.907 28.6873C308.149 25.6232 305.225 22.7141 302.133 19.9947L300.152 22.2474C303.151 24.8856 305.993 27.712 308.676 30.694L310.907 28.6873ZM292.346 12.4342C288.935 10.1398 285.358 8.06802 281.616 6.25321L280.307 8.95252C283.917 10.7036 287.372 12.7045 290.672 14.9235L292.346 12.4342ZM270.096 1.67722C268.139 1.06318 266.144 0.516641 264.112 0.0413653L263.429 2.96254C265.388 3.42079 267.311 3.94769 269.198 4.53962L270.096 1.67722Z" fill="white"/>
</svg>
