<svg width="667" height="989" viewBox="0 0 667 989" fill="none" xmlns="http://www.w3.org/2000/svg">
<path d="M666.5 979L650.974 971.322L652.088 988.607L666.5 979ZM0.66916 3.46306C2.71193 3.92499 4.74813 4.38845 6.77779 4.85343L7.44772 1.92919C5.4153 1.46357 3.37634 0.999487 1.33084 0.53694L0.66916 3.46306ZM18.8774 7.66161C22.8846 8.60374 26.8657 9.55191 30.821 10.5061L31.5246 7.58974C27.5636 6.6342 23.5768 5.68469 19.564 4.74124L18.8774 7.66161ZM42.6095 13.3865C46.5132 14.3526 50.3912 15.3246 54.2437 16.3025L54.9818 13.3947C51.1235 12.4153 47.2397 11.4419 43.3302 10.4743L42.6095 13.3865ZM65.7247 19.2538C69.5262 20.2434 73.3024 21.2388 77.0533 22.2399L77.827 19.3414C74.07 18.3386 70.2879 17.3417 66.4804 16.3505L65.7247 19.2538ZM88.2305 25.2607C91.9311 26.2733 95.6066 27.2917 99.2571 28.3157L100.067 25.4272C96.4106 24.4014 92.729 23.3814 89.0223 22.3671L88.2305 25.2607ZM110.958 31.6415C114.95 32.7915 118.912 33.9482 122.843 35.1118L123.695 32.2352C119.756 31.0695 115.787 29.9107 111.788 28.7587L110.958 31.6415ZM134.547 38.6229C138.418 39.8001 142.259 40.9839 146.07 42.1744L146.965 39.3108C143.146 38.1181 139.298 36.932 135.42 35.7527L134.547 38.6229ZM157.414 45.7657C161.166 46.9694 164.888 48.1797 168.58 49.3964L169.519 46.5471C165.819 45.3279 162.09 44.1152 158.331 42.9091L157.414 45.7657ZM179.57 53.0661C183.204 54.2957 186.808 55.5318 190.384 56.7742L191.368 53.9404C187.785 52.6953 184.173 51.4566 180.531 50.2244L179.57 53.0661ZM201.92 60.8403C205.825 62.2367 209.695 63.6409 213.529 65.0526L214.566 62.2374C210.722 60.8223 206.844 59.415 202.93 58.0155L201.92 60.8403ZM224.927 69.3106C228.691 70.7374 232.42 72.1718 236.115 73.6136L237.205 70.8188C233.502 69.3735 229.764 67.9356 225.99 66.5054L224.927 69.3106ZM247.094 77.961C250.719 79.4174 254.31 80.8811 257.867 82.3521L259.013 79.5798C255.447 78.105 251.847 76.6374 248.213 75.1772L247.094 77.961ZM268.435 86.7863C272.168 88.3755 275.862 89.9727 279.518 91.578L280.724 88.8311C277.058 87.2213 273.353 85.6195 269.61 84.026L268.435 86.7863ZM290.794 96.6094C294.512 98.2951 298.188 99.9892 301.824 101.692L303.096 98.9747C299.449 97.2671 295.762 95.5678 292.033 93.8772L290.794 96.6094ZM312.609 106.824C316.164 108.543 319.678 110.27 323.153 112.005L324.493 109.321C321.007 107.58 317.481 105.847 313.915 104.123L312.609 106.824ZM333.457 117.234C336.93 119.025 340.362 120.824 343.753 122.632L345.164 119.985C341.761 118.171 338.317 116.365 334.832 114.568L333.457 117.234ZM354.654 128.548C358.24 130.529 361.778 132.52 365.27 134.52L366.761 131.916C363.256 129.909 359.704 127.911 356.105 125.922L354.654 128.548ZM375.602 140.546C378.999 142.564 382.35 144.59 385.655 146.626L387.228 144.071C383.909 142.027 380.545 139.992 377.134 137.967L375.602 140.546ZM395.432 152.758C398.792 154.904 402.103 157.06 405.365 159.225L407.024 156.726C403.748 154.551 400.422 152.385 397.047 150.229L395.432 152.758ZM415.553 166.127C418.895 168.437 422.182 170.758 425.416 173.087L427.17 170.653C423.92 168.312 420.617 165.981 417.26 163.659L415.553 166.127ZM434.958 180.106C438.086 182.454 441.161 184.813 444.184 187.18L446.033 184.818C442.994 182.438 439.903 180.068 436.76 177.707L434.958 180.106ZM453.279 194.457C456.485 197.078 459.629 199.709 462.713 202.351L464.665 200.073C461.564 197.416 458.402 194.769 455.178 192.134L453.279 194.457ZM471.781 210.307C474.743 212.969 477.646 215.64 480.49 218.321L482.548 216.139C479.687 213.441 476.766 210.753 473.786 208.075L471.781 210.307ZM488.846 226.393C491.683 229.201 494.457 232.02 497.17 234.847L499.335 232.771C496.604 229.924 493.812 227.087 490.957 224.261L488.846 226.393ZM505.478 243.748C508.181 246.724 510.818 249.711 513.391 252.707L515.667 250.753C513.076 247.736 510.421 244.728 507.699 241.731L505.478 243.748ZM520.916 261.723C523.377 264.758 525.773 267.802 528.107 270.854L530.49 269.032C528.139 265.957 525.725 262.891 523.246 259.834L520.916 261.723ZM535.358 280.646C537.704 283.919 539.981 287.202 542.189 290.493L544.68 288.822C542.455 285.505 540.161 282.197 537.796 278.898L535.358 280.646ZM548.611 300.393C550.686 303.705 552.695 307.025 554.638 310.353L557.229 308.841C555.27 305.486 553.245 302.139 551.153 298.8L548.611 300.393ZM560.577 320.92C562.485 324.45 564.323 327.988 566.09 331.534L568.775 330.195C566.993 326.62 565.14 323.053 563.216 319.494L560.577 320.92ZM571.189 342.191C572.832 345.775 574.407 349.365 575.915 352.962L578.682 351.801C577.16 348.175 575.573 344.554 573.916 340.94L571.189 342.191ZM580.383 364.136C581.803 367.867 583.154 371.603 584.438 375.344L587.276 374.37C585.981 370.598 584.619 366.831 583.187 363.069L580.383 364.136ZM588.093 386.582C589.261 390.38 590.362 394.183 591.399 397.99L594.294 397.201C593.248 393.364 592.138 389.53 590.96 385.7L588.093 386.582ZM594.359 409.582C595.281 413.449 596.14 417.319 596.937 421.19L599.875 420.586C599.072 416.684 598.207 412.783 597.277 408.886L594.359 409.582ZM599.145 432.811C599.831 436.744 600.456 440.677 601.022 444.611L603.992 444.184C603.421 440.221 602.792 436.258 602.1 432.296L599.145 432.811ZM602.551 456.438C603.003 460.38 603.398 464.322 603.739 468.263L606.728 468.004C606.384 464.036 605.986 460.067 605.531 456.096L602.551 456.438ZM604.605 480.121C604.842 484.099 605.026 488.076 605.16 492.049L608.158 491.948C608.024 487.949 607.838 483.947 607.6 479.942L604.605 480.121ZM605.412 503.958C605.447 507.924 605.434 511.886 605.375 515.844L608.375 515.888C608.434 511.908 608.447 507.922 608.412 503.932L605.412 503.958ZM605.062 527.779C604.912 531.758 604.719 535.731 604.484 539.697L607.479 539.874C607.715 535.887 607.909 531.893 608.06 527.892L605.062 527.779ZM603.658 551.573C603.342 555.537 602.987 559.493 602.595 563.441L605.58 563.737C605.974 559.771 606.331 555.795 606.649 551.811L603.658 551.573ZM601.303 575.327C600.837 579.279 600.337 583.222 599.805 587.154L602.777 587.557C603.312 583.608 603.815 579.648 604.283 575.678L601.303 575.327ZM598.114 598.917C597.513 602.874 596.882 606.818 596.224 610.75L599.182 611.246C599.843 607.299 600.477 603.34 601.08 599.367L598.114 598.917ZM594.166 622.52C593.454 626.429 592.718 630.324 591.959 634.205L594.904 634.781C595.665 630.888 596.404 626.98 597.118 623.057L594.166 622.52ZM589.596 645.918C588.779 649.843 587.943 653.752 587.089 657.643L590.019 658.286C590.875 654.384 591.714 650.465 592.533 646.528L589.596 645.918ZM584.478 669.262C583.587 673.136 582.682 676.992 581.765 680.827L584.683 681.525C585.602 677.681 586.509 673.817 587.401 669.934L584.478 669.262ZM578.917 692.537C577.957 696.419 576.988 700.279 576.012 704.115L578.92 704.854C579.897 701.012 580.867 697.146 581.829 693.257L578.917 692.537ZM573.071 715.554C572.05 719.483 571.026 723.385 570.002 727.261L572.903 728.027C573.928 724.148 574.953 720.242 575.975 716.309L573.071 715.554ZM566.928 738.829C565.905 742.656 564.886 746.455 563.874 750.224L566.772 751.002C567.784 747.233 568.803 743.433 569.826 739.603L566.928 738.829ZM560.736 761.916C559.691 765.813 558.658 769.677 557.641 773.503L560.54 774.274C561.557 770.45 562.589 766.589 563.634 762.693L560.736 761.916ZM554.641 784.874C553.603 788.844 552.588 792.771 551.599 796.655L554.506 797.395C555.493 793.518 556.507 789.598 557.543 785.633L554.641 784.874ZM548.695 808.274C547.751 812.128 546.841 815.935 545.968 819.693L548.89 820.372C549.76 816.627 550.668 812.831 551.609 808.988L548.695 808.274ZM543.287 831.663C542.442 835.595 541.647 839.468 540.908 843.281L543.854 843.851C544.588 840.061 545.378 836.207 546.22 832.293L543.287 831.663ZM538.771 855.125C538.096 859.186 537.498 863.17 536.986 867.075L539.96 867.465C540.468 863.598 541.06 859.647 541.73 855.617L538.771 855.125ZM535.691 878.814C535.323 883.003 535.074 887.088 534.956 891.067L537.955 891.156C538.071 887.241 538.316 883.213 538.679 879.076L535.691 878.814ZM535.014 902.854C535.196 907.091 535.559 911.186 536.124 915.135L539.094 914.71C538.545 910.87 538.189 906.874 538.012 902.726L535.014 902.854ZM538.532 926.86C539.637 930.883 541.013 934.718 542.684 938.352L545.41 937.099C543.812 933.625 542.491 929.945 541.424 926.065L538.532 926.86ZM548.743 948.834C551.112 952.147 553.819 955.229 556.887 958.071L558.926 955.87C556.007 953.167 553.435 950.237 551.183 947.088L548.743 948.834ZM566.34 965.326C569.663 967.438 573.282 969.351 577.212 971.061L578.409 968.31C574.612 966.658 571.132 964.817 567.949 962.794L566.34 965.326ZM588.324 975.098C592.125 976.239 596.16 977.23 600.437 978.07L601.015 975.127C596.826 974.304 592.886 973.335 589.186 972.225L588.324 975.098ZM611.779 979.869C615.736 980.359 619.874 980.74 624.197 981.01L624.383 978.016C620.117 977.75 616.041 977.374 612.148 976.892L611.779 979.869ZM635.979 981.46C639.742 981.519 643.63 981.504 647.647 981.414L647.58 978.414C643.599 978.504 639.748 978.519 636.026 978.461L635.979 981.46Z" fill="white"/>
</svg>
