<svg width="672" height="890" viewBox="0 0 672 890" fill="none" xmlns="http://www.w3.org/2000/svg">
<path d="M592.271 882.502L578.432 872.086L576.331 889.279L592.271 882.502ZM669.271 401.002L670.767 400.9L669.271 401.002ZM0.525167 2.98171C2.51403 3.31179 4.50055 3.6542 6.4847 4.00879L7.01247 1.05558C5.0162 0.698826 3.01748 0.35431 1.01634 0.0221937L0.525167 2.98171ZM18.3609 6.28111C22.31 7.08639 26.2494 7.93906 30.1788 8.83785L30.8478 5.91338C26.8955 5.00937 22.933 4.15168 18.9603 3.3416L18.3609 6.28111ZM41.9314 11.6698C45.8368 12.6585 49.7321 13.6919 53.6169 14.7688L54.4182 11.8778C50.5121 10.795 46.5951 9.75584 42.6676 8.76156L41.9314 11.6698ZM65.2397 18.1283C69.0984 19.2892 72.9464 20.4921 76.7835 21.7358L77.7085 18.882C73.8515 17.6319 69.9833 16.4226 66.104 15.2555L65.2397 18.1283ZM88.2447 25.5818C92.054 26.9035 95.8523 28.2646 99.6392 29.6638L100.679 26.8497C96.8736 25.4437 93.0565 24.0759 89.2281 22.7475L88.2447 25.5818ZM110.948 33.9671C114.698 35.4357 118.437 36.9407 122.165 38.481L123.31 35.7085C119.566 34.1612 115.81 32.6491 112.042 31.1736L110.948 33.9671ZM133.311 43.2064C137.009 44.8137 140.696 46.4549 144.37 48.1286L145.613 45.3986C141.924 43.7177 138.221 42.0694 134.506 40.455L133.311 43.2064ZM155.333 53.2357C158.975 54.9697 162.604 56.7349 166.221 58.5301L167.555 55.8428C163.924 54.0405 160.279 52.2682 156.622 50.527L155.333 53.2357ZM177.025 63.9993C180.607 65.8484 184.177 67.7261 187.734 69.6311L189.15 66.9865C185.58 65.0745 181.997 63.1897 178.401 61.3334L177.025 63.9993ZM198.364 75.4266C201.894 77.3845 205.41 79.3683 208.912 81.377L210.405 78.7745C206.89 76.7589 203.362 74.7681 199.82 72.8032L198.364 75.4266ZM219.373 87.4722C222.846 89.5279 226.305 91.6071 229.751 93.7085L231.313 91.1473C227.856 89.0391 224.386 86.9531 220.901 84.8905L219.373 87.4722ZM240.048 100.08C243.47 102.228 246.878 104.397 250.271 106.585L251.897 104.064C248.493 101.869 245.075 99.6937 241.643 97.5394L240.048 100.08ZM260.406 113.209C263.772 115.437 267.123 117.684 270.46 119.949L272.145 117.466C268.799 115.196 265.438 112.942 262.062 110.707L260.406 113.209ZM280.457 126.816C283.774 129.121 287.076 131.443 290.362 133.78L292.101 131.335C288.806 128.992 285.496 126.664 282.169 124.352L280.457 126.816ZM300.184 140.84C303.462 143.222 306.725 145.619 309.971 148.028L311.759 145.618C308.505 143.204 305.234 140.802 301.947 138.413L300.184 140.84ZM319.66 155.29C322.877 157.726 326.078 160.173 329.262 162.63L331.095 160.255C327.904 157.792 324.696 155.34 321.471 152.898L319.66 155.29ZM338.854 170.101C342.034 172.6 345.197 175.109 348.342 177.625L350.216 175.282C347.064 172.761 343.895 170.247 340.708 167.742L338.854 170.101ZM357.741 185.208C360.897 187.775 364.035 190.349 367.154 192.928L369.065 190.616C365.94 188.032 362.797 185.453 359.634 182.881L357.741 185.208ZM376.454 200.678C379.546 203.274 382.619 205.874 385.672 208.476L387.618 206.193C384.559 203.586 381.481 200.982 378.383 198.38L376.454 200.678ZM394.919 216.413C397.981 219.059 401.023 221.707 404.044 224.353L406.021 222.096C402.995 219.446 399.948 216.794 396.881 214.143L394.919 216.413ZM413.111 232.347C416.164 235.056 419.195 237.762 422.204 240.464L424.209 238.232C421.195 235.526 418.16 232.816 415.102 230.103L413.111 232.347ZM431.164 248.558C434.171 251.29 437.155 254.016 440.116 256.735L442.145 254.525C439.181 251.803 436.192 249.073 433.181 246.337L431.164 248.558ZM449.064 264.994C452.022 267.738 454.955 270.473 457.864 273.196L459.914 271.006C457.003 268.28 454.066 265.542 451.104 262.794L449.064 264.994ZM466.751 281.554C469.713 284.352 472.648 287.137 475.556 289.905L477.625 287.732C474.714 284.961 471.776 282.174 468.811 279.373L466.751 281.554ZM484.238 298.2C487.216 301.055 490.164 303.891 493.081 306.705L495.164 304.546C492.245 301.73 489.295 298.892 486.314 296.034L484.238 298.2ZM501.739 315.079C504.682 317.932 507.592 320.761 510.468 323.561L512.56 321.411C509.683 318.61 506.772 315.78 503.827 312.925L501.739 315.079ZM519.172 332.049C522.072 334.88 524.935 337.679 527.762 340.443L529.859 338.298C527.033 335.534 524.169 332.735 521.268 329.902L519.172 332.049ZM536.543 349.031C539.429 351.853 542.274 354.633 545.077 357.368L547.172 355.22C544.37 352.486 541.526 349.707 538.641 346.886L536.543 349.031ZM553.922 365.981C556.836 368.812 559.701 371.587 562.516 374.302L564.598 372.143C561.786 369.43 558.924 366.658 556.012 363.829L553.922 365.981ZM571.407 382.835C574.354 385.646 577.241 388.381 580.067 391.036L582.121 388.85C579.301 386.201 576.42 383.47 573.478 380.664L571.407 382.835ZM589.134 399.466C592.17 402.255 595.128 404.935 598.007 407.499L600.002 405.259C597.137 402.707 594.19 400.037 591.164 397.256L589.134 399.466ZM607.267 415.573C610.541 418.359 613.697 420.963 616.733 423.373L618.598 421.023C615.593 418.638 612.464 416.056 609.211 413.288L607.267 415.573ZM626.419 430.676C630.046 433.248 633.471 435.466 636.686 437.296L638.17 434.689C635.061 432.919 631.721 430.758 628.154 428.229L626.419 430.676ZM648.155 442.399C652.984 443.793 657.308 443.833 660.908 442.033L659.567 439.35C656.891 440.688 653.417 440.796 648.987 439.517L648.155 442.399ZM668.686 431.905C669.818 428.555 670.557 424.462 670.918 419.604L667.926 419.382C667.577 424.079 666.871 427.906 665.844 430.945L668.686 431.905ZM671.104 407.5C671.037 405.401 670.924 403.202 670.767 400.9L667.774 401.104C667.929 403.374 668.039 405.537 668.105 407.596L671.104 407.5ZM670.767 400.9C670.606 398.549 670.422 396.328 670.215 394.234L667.23 394.529C667.433 396.59 667.615 398.78 667.774 401.104L670.767 400.9ZM668.524 382.224C667.484 376.931 666.172 372.941 664.558 370.253L661.986 371.798C663.334 374.043 664.564 377.633 665.58 382.802L668.524 382.224ZM652.461 368.725C650.069 370.856 647.588 374.195 645.039 378.504L647.621 380.031C650.111 375.823 652.406 372.792 654.457 370.965L652.461 368.725ZM639.359 389.411C637.754 392.832 636.115 396.594 634.448 400.667L637.224 401.803C638.876 397.768 640.495 394.053 642.075 390.685L639.359 389.411ZM629.953 412.223C628.619 415.815 627.271 419.583 625.914 423.515L628.75 424.494C630.1 420.582 631.44 416.836 632.765 413.267L629.953 412.223ZM622.051 435.06C620.82 438.849 619.584 442.759 618.345 446.781L621.212 447.664C622.447 443.655 623.678 439.76 624.904 435.987L622.051 435.06ZM614.881 458.292C613.742 462.164 612.602 466.124 611.463 470.163L614.351 470.977C615.486 466.948 616.623 463 617.759 459.139L614.881 458.292ZM608.271 481.708C607.212 485.615 606.155 489.585 605.103 493.613L608.005 494.371C609.056 490.352 610.11 486.391 611.167 482.494L608.271 481.708ZM602.116 505.245C601.127 509.165 600.144 513.132 599.166 517.142L602.081 517.852C603.056 513.85 604.038 509.891 605.025 505.979L602.116 505.245ZM596.352 528.881C595.427 532.808 594.508 536.77 593.598 540.762L596.523 541.429C597.431 537.444 598.348 533.489 599.272 529.569L596.352 528.881ZM590.943 552.602C590.075 556.537 589.216 560.497 588.368 564.478L591.302 565.103C592.149 561.13 593.006 557.177 593.873 553.248L590.943 552.602ZM585.871 576.393C585.058 580.342 584.256 584.307 583.465 588.284L586.408 588.869C587.197 584.899 587.998 580.941 588.81 576.998L585.871 576.393ZM581.133 600.237C580.372 604.208 579.625 608.186 578.891 612.169L581.842 612.712C582.574 608.737 583.32 604.765 584.079 600.802L581.133 600.237ZM576.733 624.125C576.026 628.123 575.334 632.122 574.658 636.117L577.616 636.617C578.291 632.629 578.982 628.638 579.687 624.647L576.733 624.125ZM572.679 648.095C572.031 652.11 571.401 656.117 570.789 660.113L573.754 660.567C574.365 656.579 574.994 652.58 575.64 648.573L572.679 648.095ZM568.998 672.143C568.417 676.162 567.856 680.165 567.316 684.148L570.288 684.551C570.827 680.577 571.387 676.583 571.967 672.572L568.998 672.143ZM565.732 696.255C565.227 700.271 564.744 704.261 564.286 708.222L567.266 708.566C567.723 704.616 568.204 700.636 568.709 696.63L565.732 696.255ZM562.942 720.427C562.521 724.461 562.127 728.459 561.762 732.415L564.749 732.691C565.113 728.747 565.506 724.761 565.926 720.738L562.942 720.427ZM560.714 744.659C560.395 748.715 560.109 752.72 559.857 756.669L562.851 756.859C563.101 752.926 563.386 748.936 563.704 744.894L560.714 744.659ZM559.178 768.958C558.99 773.025 558.842 777.023 558.737 780.945L561.736 781.025C561.841 777.124 561.988 773.146 562.175 769.096L559.178 768.958ZM558.548 793.314C558.536 797.428 558.577 801.441 558.675 805.346L561.674 805.271C561.577 801.396 561.536 797.411 561.548 793.323L558.548 793.314ZM559.193 817.647C559.45 821.881 559.786 825.957 560.206 829.861L563.188 829.541C562.775 825.688 562.442 821.658 562.188 817.465L559.193 817.647ZM561.844 841.808C562.577 846.093 563.44 850.107 564.441 853.823L567.338 853.043C566.364 849.431 565.521 845.51 564.802 841.302L561.844 841.808ZM568.519 865.555C570.385 869.727 572.556 873.29 575.069 876.145L577.321 874.163C575.055 871.589 573.033 868.3 571.257 864.33L568.519 865.555Z" fill="white"/>
</svg>
