<svg width="1272" height="686" viewBox="0 0 1272 686" fill="none" xmlns="http://www.w3.org/2000/svg">
<path d="M143.421 686L126.218 683.98L136.569 670.092L143.421 686ZM1092.88 0.549153C1095.08 1.12551 1097.25 1.69974 1099.4 2.27187L1098.63 5.17108C1096.48 4.5998 1094.31 4.02639 1092.12 3.45086L1092.88 0.549153ZM1112.04 5.67956C1116.17 6.80714 1120.2 7.92645 1124.15 9.03763L1123.34 11.9255C1119.4 10.8164 1115.37 9.69911 1111.25 8.57341L1112.04 5.67956ZM1135.74 12.3469C1139.52 13.4419 1143.21 14.529 1146.82 15.6082L1145.96 18.4822C1142.36 17.4056 1138.68 16.321 1134.91 15.2282L1135.74 12.3469ZM1157.38 18.8224C1161.26 20.0253 1165.04 21.2183 1168.71 22.4016L1167.79 25.2569C1164.13 24.0773 1160.37 22.8878 1156.49 21.6882L1157.38 18.8224ZM1181.28 26.5538C1185.32 27.9247 1189.21 29.2824 1192.96 30.6275L1191.95 33.4513C1188.21 32.1125 1184.34 30.7604 1180.31 29.3947L1181.28 26.5538ZM1203.78 34.6248C1207.24 35.9448 1210.56 37.2525 1213.75 38.5482L1212.62 41.3267C1209.46 40.0401 1206.15 38.7407 1202.71 37.4282L1203.78 34.6248ZM1225.95 43.7659C1230 45.5868 1233.76 47.3847 1237.24 49.1605L1235.88 51.8333C1232.44 50.0819 1228.73 48.3048 1224.72 46.5013L1225.95 43.7659ZM1246.87 54.4252C1250.96 56.836 1254.53 59.2114 1257.59 61.5554L1255.77 63.9386C1252.82 61.6811 1249.35 59.3716 1245.35 57.0089L1246.87 54.4252ZM1266.27 69.6163C1269.43 73.3779 1271.31 77.1419 1271.85 80.9148L1268.88 81.3372C1268.44 78.2736 1266.88 75.0147 1263.97 71.545L1266.27 69.6163ZM1269.07 92.5494C1266.95 95.8722 1263.73 99.0406 1259.58 102.083L1257.8 99.6618C1261.78 96.7558 1264.68 93.8445 1266.54 90.9365L1269.07 92.5494ZM1250.25 107.895C1246.74 109.796 1242.83 111.666 1238.55 113.509L1237.36 110.753C1241.58 108.939 1245.41 107.107 1248.82 105.257L1250.25 107.895ZM1227.74 117.811C1224.22 119.117 1220.5 120.411 1216.6 121.695L1215.66 118.845C1219.53 117.571 1223.21 116.289 1226.7 114.997L1227.74 117.811ZM1204.34 125.518C1200.67 126.603 1196.88 127.682 1192.95 128.755L1192.16 125.862C1196.07 124.794 1199.84 123.72 1203.48 122.641L1204.34 125.518ZM1181.74 131.718C1177.9 132.701 1173.95 133.68 1169.9 134.654L1169.2 131.738C1173.24 130.766 1177.17 129.791 1181 128.812L1181.74 131.718ZM1157.44 137.567C1153.72 138.413 1149.93 139.257 1146.06 140.099L1145.42 137.168C1149.28 136.328 1153.07 135.486 1156.78 134.642L1157.44 137.567ZM1134.66 142.528C1130.79 143.336 1126.86 144.142 1122.86 144.947L1122.27 142.006C1126.26 141.202 1130.19 140.398 1134.04 139.591L1134.66 142.528ZM1110.68 147.357C1106.65 148.14 1102.57 148.923 1098.42 149.704L1097.87 146.756C1102.01 145.976 1106.09 145.194 1110.11 144.412L1110.68 147.357ZM1087.09 151.816C1083.26 152.519 1079.39 153.222 1075.48 153.924L1074.95 150.972C1078.86 150.27 1082.72 149.568 1086.54 148.865L1087.09 151.816ZM1063.61 156.032C1059.61 156.735 1055.57 157.437 1051.49 158.14L1050.98 155.183C1055.06 154.481 1059.09 153.779 1063.09 153.077L1063.61 156.032ZM1039.12 160.249C1035.33 160.89 1031.5 161.532 1027.64 162.174L1027.15 159.215C1031 158.573 1034.83 157.932 1038.62 157.291L1039.12 160.249ZM1016.02 164.094C1012.11 164.735 1008.18 165.376 1004.22 166.018L1003.74 163.057C1007.7 162.415 1011.63 161.774 1015.53 161.134L1016.02 164.094ZM992.239 167.947C988.218 168.591 984.169 169.236 980.093 169.882L979.623 166.919C983.698 166.274 987.745 165.629 991.765 164.985L992.239 167.947ZM967.951 171.798C964.111 172.402 960.249 173.006 956.365 173.612L955.903 170.647C959.785 170.042 963.647 169.438 967.485 168.835L967.951 171.798ZM944.649 175.432C940.723 176.041 936.776 176.65 932.809 177.261L932.352 174.296C936.318 173.685 940.264 173.076 944.19 172.468L944.649 175.432ZM920.849 179.099C916.843 179.714 912.818 180.33 908.774 180.947L908.321 177.982C912.364 177.364 916.389 176.748 920.394 176.134L920.849 179.099ZM896.591 182.806C892.72 183.396 888.832 183.987 884.93 184.58L884.479 181.614C888.381 181.021 892.268 180.43 896.139 179.84L896.591 182.806ZM873.185 186.365C869.256 186.962 865.313 187.561 861.356 188.161L860.905 185.195C864.862 184.595 868.806 183.996 872.735 183.399L873.185 186.365ZM849.446 189.97C845.463 190.574 841.467 191.181 837.46 191.791L837.009 188.825C841.016 188.216 845.012 187.608 848.995 187.004L849.446 189.97ZM825.402 193.625C821.436 194.229 817.459 194.836 813.471 195.444L813.018 192.479C817.006 191.87 820.984 191.264 824.951 190.659L825.402 193.625ZM801.71 197.243C797.78 197.844 793.841 198.448 789.894 199.055L789.438 196.09C793.386 195.483 797.325 194.879 801.256 194.277L801.71 197.243ZM778.027 200.882C774.064 201.494 770.093 202.108 766.114 202.725L765.655 199.76C769.634 199.143 773.606 198.529 777.57 197.917L778.027 200.882ZM754.159 204.584C750.167 205.206 746.169 205.831 742.165 206.459L741.7 203.496C745.705 202.867 749.704 202.242 753.697 201.62L754.159 204.584ZM730.3 208.326C726.365 208.947 722.424 209.571 718.48 210.198L718.009 207.236C721.954 206.608 725.896 205.984 729.832 205.363L730.3 208.326ZM706.634 212.088C702.681 212.721 698.725 213.357 694.765 213.997L694.287 211.035C698.248 210.396 702.205 209.759 706.159 209.126L706.634 212.088ZM682.879 215.923C678.915 216.569 674.947 217.218 670.979 217.87L670.492 214.909C674.463 214.257 678.431 213.608 682.397 212.962L682.879 215.923ZM659.067 219.835C655.112 220.491 651.156 221.151 647.2 221.813L646.704 218.854C650.662 218.191 654.62 217.532 658.576 216.876L659.067 219.835ZM635.343 223.809C631.391 224.478 627.439 225.151 623.488 225.827L622.982 222.87C626.935 222.193 630.889 221.521 634.843 220.851L635.343 223.809ZM611.636 227.866C607.686 228.549 603.738 229.236 599.792 229.927L599.275 226.972C603.223 226.281 607.173 225.593 611.124 224.91L611.636 227.866ZM587.96 232.011C584.018 232.71 580.079 233.412 576.143 234.119L575.613 231.166C579.551 230.459 583.492 229.756 587.436 229.057L587.96 232.011ZM564.26 236.266C560.297 236.987 556.337 237.712 552.383 238.441L551.839 235.49C555.796 234.761 559.757 234.035 563.723 233.314L564.26 236.266ZM540.533 240.641C536.588 241.379 532.648 242.121 528.714 242.867L528.154 239.92C532.091 239.173 536.034 238.43 539.981 237.692L540.533 240.641ZM516.929 245.12C513.007 245.875 509.091 246.635 505.182 247.4L504.606 244.455C508.518 243.69 512.437 242.93 516.362 242.174L516.929 245.12ZM493.478 249.707C489.498 250.498 485.526 251.294 481.563 252.094L480.969 249.154C484.935 248.352 488.91 247.556 492.893 246.765L493.478 249.707ZM469.688 254.514C465.739 255.326 461.799 256.143 457.869 256.965L457.255 254.028C461.188 253.206 465.131 252.388 469.084 251.576L469.688 254.514ZM446.11 259.446C442.2 260.279 438.302 261.117 434.415 261.96L433.779 259.028C437.67 258.184 441.572 257.346 445.485 256.512L446.11 259.446ZM422.788 264.506C418.891 265.367 415.006 266.235 411.135 267.107L410.475 264.181C414.351 263.307 418.24 262.439 422.14 261.577L422.788 264.506ZM399.219 269.821C395.261 270.732 391.318 271.649 387.39 272.572L386.703 269.651C390.636 268.727 394.584 267.809 398.546 266.897L399.219 269.821ZM375.652 275.36C371.756 276.296 367.875 277.238 364.011 278.186L363.296 275.273C367.165 274.323 371.05 273.38 374.952 272.443L375.652 275.36ZM352.47 281.051C348.64 282.013 344.828 282.981 341.034 283.956L340.287 281.05C344.086 280.074 347.904 279.105 351.739 278.142L352.47 281.051ZM329.247 287.022C325.285 288.066 321.345 289.116 317.426 290.175L316.644 287.279C320.568 286.219 324.515 285.166 328.483 284.121L329.247 287.022ZM305.738 293.374C301.865 294.448 298.015 295.53 294.188 296.62L293.366 293.735C297.2 292.643 301.057 291.559 304.937 290.483L305.738 293.374ZM282.782 299.914C279.004 301.02 275.251 302.134 271.524 303.256L270.659 300.383C274.394 299.259 278.154 298.143 281.939 297.035L282.782 299.914ZM259.933 306.799C255.99 308.022 252.077 309.255 248.196 310.498L247.281 307.641C251.171 306.395 255.092 305.159 259.044 303.933L259.933 306.799ZM236.651 314.256C232.834 315.518 229.051 316.791 225.302 318.073L224.331 315.235C228.09 313.949 231.883 312.673 235.708 311.407L236.651 314.256ZM214.157 321.951C210.477 323.254 206.832 324.567 203.223 325.89L202.19 323.074C205.81 321.746 209.466 320.429 213.156 319.123L214.157 321.951ZM191.625 330.227C187.762 331.7 183.943 333.187 180.171 334.685L179.063 331.897C182.849 330.393 186.68 328.902 190.556 327.424L191.625 330.227ZM168.994 339.221C165.316 340.746 161.685 342.283 158.104 343.834L156.912 341.082C160.508 339.524 164.153 337.98 167.845 336.45L168.994 339.221ZM147.508 348.527C143.759 350.226 140.07 351.94 136.44 353.67L135.149 350.962C138.797 349.223 142.504 347.501 146.27 345.795L147.508 348.527ZM125.333 359.109C121.697 360.939 118.129 362.787 114.63 364.651L113.219 362.004C116.739 360.128 120.329 358.27 123.984 356.429L125.333 359.109ZM104.341 370.299C100.982 372.199 97.6948 374.117 94.4805 376.053L92.9328 373.483C96.1713 371.533 99.4824 369.601 102.864 367.688L104.341 370.299ZM83.8075 382.724C80.3353 384.979 76.9615 387.257 73.689 389.559L71.9629 387.105C75.2673 384.78 78.6719 382.482 82.1737 380.208L83.8075 382.724ZM64.1781 396.537C61.1111 398.887 58.1484 401.262 55.2928 403.661L53.3629 401.364C56.2546 398.935 59.2524 396.532 62.3534 394.156L64.1781 396.537ZM46.0104 411.905C43.006 414.732 40.1483 417.592 37.4414 420.486L35.2507 418.436C38.0033 415.494 40.9063 412.589 43.9545 409.72L46.0104 411.905ZM29.7778 429.266C27.2845 432.341 24.9585 435.452 22.8045 438.6L20.3285 436.906C22.5308 433.687 24.9057 430.511 27.4477 427.377L29.7778 429.266ZM16.4201 448.952C14.4974 452.447 12.7816 455.986 11.2788 459.571L8.51215 458.411C10.0575 454.725 11.8199 451.09 13.7916 447.506L16.4201 448.952ZM7.40163 470.504C6.30267 474.281 5.43389 478.107 4.80205 481.985L1.84103 481.503C2.49289 477.503 3.38865 473.557 4.52109 469.666L7.40163 470.504ZM3.62327 493.779C3.47255 497.74 3.56261 501.755 3.90061 505.827L0.910935 506.075C0.563081 501.885 0.470069 497.748 0.625427 493.664L3.62327 493.779ZM5.42748 516.988C6.14211 520.755 7.06439 524.569 8.19992 528.431L5.3218 529.277C4.15948 525.324 3.21372 521.414 2.48008 517.547L5.42748 516.988ZM12.252 540.164C13.6423 543.675 15.2049 547.226 16.9435 550.815L14.2435 552.123C12.474 548.47 10.8815 544.852 9.46272 541.268L12.252 540.164ZM22.1984 560.832C24.1013 564.205 26.1565 567.61 28.3672 571.05L25.8434 572.672C23.6031 569.186 21.518 565.731 19.5855 562.306L22.1984 560.832ZM35.4676 581.47C37.7807 584.685 40.2267 587.928 42.8078 591.199L40.4525 593.057C37.8453 589.753 35.3726 586.474 33.0326 583.223L35.4676 581.47ZM49.83 599.777C52.2733 602.658 54.8195 605.561 57.4701 608.486L55.2472 610.501C52.5752 607.552 50.0072 604.625 47.5419 601.718L49.83 599.777ZM65.7367 617.326C68.5976 620.295 71.5642 623.285 74.638 626.298L72.5381 628.441C69.4446 625.409 66.4579 622.398 63.5766 619.408L65.7367 617.326ZM83.9654 635.202C86.5971 637.65 89.2986 640.114 92.0704 642.591L90.0711 644.828C87.2848 642.337 84.5686 639.861 81.9218 637.398L83.9654 635.202ZM100.598 650.067C103.511 652.573 106.495 655.094 109.551 657.63L107.636 659.939C104.566 657.392 101.568 654.86 98.6411 652.341L100.598 650.067ZM118.936 665.28C122.137 667.845 125.41 670.424 128.756 673.018L126.918 675.389C123.559 672.786 120.274 670.196 117.06 667.621L118.936 665.28Z" fill="white"/>
</svg>
