<svg width="456" height="852" viewBox="0 0 456 852" fill="none" xmlns="http://www.w3.org/2000/svg">
<path d="M455.271 842.002L440.666 851.315L439.904 834.011L455.271 842.002ZM436.818 844.178C432.752 844.281 428.719 844.351 424.719 844.39L424.69 841.39C428.674 841.352 432.692 841.281 436.743 841.179L436.818 844.178ZM412.818 844.412C408.884 844.388 404.983 844.333 401.115 844.247L401.182 841.248C405.034 841.334 408.919 841.389 412.837 841.412L412.818 844.412ZM389.444 843.891C385.291 843.729 381.176 843.531 377.1 843.297L377.272 840.302C381.329 840.535 385.425 840.732 389.561 840.893L389.444 843.891ZM364.987 842.488C360.988 842.183 357.026 841.842 353.103 841.467L353.389 838.481C357.293 838.854 361.235 839.193 365.215 839.497L364.987 842.488ZM341.448 840.237C337.511 839.782 333.614 839.291 329.757 838.765L330.162 835.792C333.999 836.316 337.876 836.804 341.792 837.257L341.448 840.237ZM317.582 836.966C313.568 836.327 309.598 835.648 305.671 834.931L306.211 831.98C310.114 832.693 314.062 833.368 318.054 834.004L317.582 836.966ZM294.023 832.663C290.184 831.868 286.388 831.035 282.635 830.165L283.313 827.243C287.042 828.107 290.815 828.935 294.631 829.725L294.023 832.663ZM270.82 827.265C266.861 826.239 262.951 825.169 259.091 824.057L259.922 821.174C263.756 822.279 267.639 823.341 271.573 824.361L270.82 827.265ZM247.66 820.595C243.898 819.399 240.186 818.162 236.523 816.884L237.511 814.052C241.148 815.32 244.834 816.549 248.569 817.736L247.66 820.595ZM225.211 812.751C221.393 811.291 217.63 809.785 213.923 808.235L215.08 805.467C218.759 807.005 222.493 808.5 226.283 809.949L225.211 812.751ZM202.964 803.45C199.366 801.81 195.822 800.127 192.333 798.402L193.662 795.712C197.123 797.424 200.638 799.093 204.208 800.719L202.964 803.45ZM181.583 792.86C178.003 790.937 174.483 788.967 171.023 786.952L172.533 784.36C175.963 786.358 179.453 788.31 183.002 790.217L181.583 792.86ZM160.819 780.77C157.467 778.658 154.174 776.501 150.939 774.3L152.627 771.82C155.832 774 159.096 776.138 162.419 778.232L160.819 780.77ZM141.008 767.273C137.762 764.884 134.578 762.449 131.456 759.969L133.323 757.62C136.415 760.077 139.569 762.489 142.786 764.856L141.008 767.273ZM122.279 752.398C119.227 749.783 116.239 747.123 113.314 744.42L115.35 742.217C118.248 744.894 121.207 747.529 124.231 750.119L122.279 752.398ZM104.615 736.067C101.779 733.239 99.0083 730.368 96.3009 727.456L98.4982 725.413C101.18 728.298 103.925 731.142 106.733 733.943L104.615 736.067ZM88.342 718.564C85.712 715.512 83.1472 712.418 80.6469 709.285L82.9918 707.414C85.4687 710.518 88.0094 713.582 90.6146 716.605L88.342 718.564ZM73.3382 699.766C70.9658 696.555 68.657 693.304 66.411 690.018L68.888 688.325C71.1134 691.582 73.4009 694.802 75.7513 697.984L73.3382 699.766ZM59.8171 679.979C57.6797 676.593 55.6053 673.171 53.5929 669.715L56.1854 668.206C58.1799 671.631 60.2359 675.022 62.354 678.378L59.8171 679.979ZM47.7412 659.247C45.8527 655.726 44.0253 652.172 42.2584 648.587L44.9492 647.261C46.7012 650.815 48.5128 654.338 50.385 657.829L47.7412 659.247ZM37.1387 637.746C35.4919 634.102 33.9046 630.43 32.3759 626.729L35.1486 625.584C36.6649 629.254 38.2393 632.897 39.8725 636.51L37.1387 637.746ZM27.9714 615.566C26.5676 611.836 25.2208 608.08 23.9302 604.301L26.7693 603.331C28.05 607.082 29.3863 610.809 30.7791 614.509L27.9714 615.566ZM20.2263 592.892C19.0473 589.066 17.9237 585.218 16.8546 581.35L19.7463 580.551C20.8076 584.391 21.923 588.211 23.0933 592.008L20.2263 592.892ZM13.8349 569.784C12.8819 565.911 11.9817 562.02 11.1333 558.112L14.065 557.476C14.9076 561.357 15.8017 565.222 16.748 569.067L13.8349 569.784ZM8.7431 546.338C8.00204 542.42 7.31149 538.486 6.67059 534.538L9.63181 534.058C10.2686 537.98 10.9547 541.888 11.6909 545.78L8.7431 546.338ZM4.90298 522.706C4.36252 518.749 3.87051 514.78 3.42618 510.799L6.40765 510.467C6.8493 514.423 7.33829 518.368 7.8754 522.3L4.90298 522.706ZM2.23724 498.849C1.89044 494.885 1.58972 490.912 1.33423 486.931L4.32806 486.739C4.58209 490.697 4.88107 494.647 5.22583 498.588L2.23724 498.849ZM0.70282 474.966C0.537109 470.971 0.415863 466.97 0.338379 462.964L3.33783 462.906C3.41489 466.89 3.53543 470.869 3.70023 474.842L0.70282 474.966ZM0.236206 450.996C0.244904 447.009 0.29599 443.018 0.388702 439.026L3.38791 439.096C3.29565 443.067 3.24484 447.037 3.23618 451.003L0.236206 450.996ZM0.791077 427.045C0.966156 423.054 1.18201 419.063 1.43796 415.074L4.43179 415.266C4.17715 419.235 3.96237 423.206 3.78818 427.176L0.791077 427.045ZM2.32297 403.134C2.65738 399.156 3.03091 395.181 3.44287 391.209L6.42685 391.519C6.01691 395.471 5.64517 399.427 5.31244 403.386L2.32297 403.134ZM4.79315 379.307C5.28159 375.34 5.80777 371.379 6.37091 367.425L9.34094 367.848C8.78046 371.784 8.25677 375.726 7.77063 379.673L4.79315 379.307ZM8.17084 355.581C8.80731 351.641 9.48007 347.708 10.1883 343.785L13.1406 344.318C12.4356 348.223 11.766 352.137 11.1324 356.059L8.17084 355.581ZM12.425 332.016C13.2084 328.09 14.027 324.175 14.88 320.273L17.8108 320.913C16.9617 324.798 16.1468 328.695 15.367 332.603L12.425 332.016ZM17.5416 308.604C18.4629 304.727 19.4179 300.865 20.4058 297.017L23.3115 297.763C22.3281 301.593 21.3774 305.439 20.4604 309.298L17.5416 308.604ZM23.5037 285.391C24.5695 281.533 25.6682 277.692 26.7991 273.869L29.6759 274.72C28.5501 278.525 27.4564 282.349 26.3954 286.19L23.5037 285.391ZM30.2874 262.458C31.4949 258.633 32.7345 254.828 34.0054 251.045L36.8492 252.001C35.5842 255.766 34.3503 259.553 33.1483 263.361L30.2874 262.458ZM37.9371 239.692C39.2788 235.931 40.6514 232.194 42.054 228.482L44.8603 229.543C43.4643 233.237 42.0981 236.956 40.7627 240.7L37.9371 239.692ZM46.3823 217.348C47.8799 213.601 49.4082 209.883 50.9662 206.195L53.7297 207.362C52.1793 211.032 50.6584 214.733 49.168 218.461L46.3823 217.348ZM55.7287 195.223C57.3476 191.592 58.9955 187.993 60.6715 184.428L63.3865 185.704C61.7191 189.251 60.0795 192.832 58.4687 196.445L55.7287 195.223ZM65.9373 173.523C67.7217 169.925 69.5349 166.364 71.376 162.843L74.0345 164.233C72.2035 167.735 70.3999 171.277 68.6249 174.856L65.9373 173.523ZM76.9821 152.4C78.9431 148.842 80.9328 145.327 82.9503 141.859L85.5435 143.368C83.5378 146.816 81.5595 150.31 79.6096 153.848L76.9821 152.4ZM89.11 131.555C91.1905 128.168 93.2979 124.83 95.4312 121.542L97.9478 123.175C95.8282 126.442 93.734 129.759 91.6662 133.125L89.11 131.555ZM102.165 111.459C104.451 108.133 106.765 104.865 109.104 101.657L111.528 103.424C109.206 106.609 106.908 109.855 104.637 113.158L102.165 111.459ZM116.198 92.2158C118.709 88.974 121.248 85.8012 123.812 82.7003L126.124 84.6122C123.58 87.6879 121.062 90.8357 118.57 94.053L116.198 92.2158ZM131.599 73.5952C134.251 70.5992 136.928 67.6799 139.629 64.8403L141.803 66.9078C139.127 69.7207 136.475 72.6136 133.846 75.5835L131.599 73.5952ZM148.191 56.1838C151.07 53.3879 153.973 50.6827 156.9 48.0716L158.897 50.3099C156.003 52.8921 153.131 55.5686 150.281 58.336L148.191 56.1838ZM166.086 40.2463C169.248 37.6796 172.433 35.2234 175.641 32.8816L177.41 35.3046C174.245 37.6151 171.1 40.04 167.976 42.5755L166.086 40.2463ZM185.424 26.1418C188.881 23.9008 192.362 21.7941 195.862 19.8267L197.332 22.442C193.888 24.3773 190.462 26.4513 187.055 28.6593L185.424 26.1418ZM206.421 14.3474C210.13 12.5826 213.858 10.9763 217.603 9.53439L218.681 12.3341C215.01 13.7474 211.352 15.3232 207.71 17.0563L206.421 14.3474ZM228.972 5.68251C232.874 4.54133 236.789 3.58207 240.717 2.81128L241.294 5.75511C237.459 6.50789 233.631 7.44536 229.815 8.56185L228.972 5.68251ZM252.665 1.05754C256.67 0.668996 260.683 0.481411 264.7 0.501451L264.685 3.50141C260.771 3.48189 256.86 3.66463 252.954 4.04352L252.665 1.05754ZM276.787 1.1941C278.801 1.416 280.816 1.69166 282.83 2.02189L282.345 4.98236C280.383 4.66069 278.42 4.39219 276.458 4.17607L276.787 1.1941Z" fill="white"/>
</svg>
