<svg width="530" height="133" viewBox="0 0 530 133" fill="none" xmlns="http://www.w3.org/2000/svg">
<path d="M49.7704 127.002L36.9245 115.384L33.2858 132.318L49.7704 127.002ZM32.054 121.34C27.5951 120.155 23.6934 118.978 20.3205 117.809L19.3383 120.644C22.7959 121.842 26.7705 123.04 31.2838 124.239L32.054 121.34ZM9.57491 113.175C7.13735 111.784 5.54306 110.47 4.62164 109.267C3.72641 108.098 3.50398 107.094 3.66375 106.181L0.708657 105.664C0.374346 107.574 0.950852 109.408 2.23998 111.091C3.50292 112.74 5.47842 114.292 8.08848 115.781L9.57491 113.175ZM11.4437 99.0333C14.3501 97.4904 18.0035 95.9404 22.352 94.388L21.3434 91.5626C16.9125 93.1444 13.1142 94.75 10.0371 96.3835L11.4437 99.0333ZM33.5533 90.8159C37.1599 89.7749 41.0472 88.7377 45.1943 87.7048L44.4693 84.7937C40.2924 85.8341 36.369 86.8807 32.7214 87.9335L33.5533 90.8159ZM57.2182 84.8792C60.9023 84.0591 64.7391 83.2421 68.7175 82.4284L68.1163 79.4892C64.1228 80.3061 60.2691 81.1266 56.5664 81.9508L57.2182 84.8792ZM80.8624 80.0358C84.6289 79.3197 88.498 78.6064 92.4619 77.8958L91.9325 74.9429C87.9592 75.6552 84.0798 76.3704 80.3021 77.0886L80.8624 80.0358ZM104.63 75.7723C108.451 75.1225 112.346 74.4751 116.309 73.8301L115.827 70.8691C111.858 71.5151 107.956 72.1637 104.127 72.8148L104.63 75.7723ZM128.358 71.9081C132.265 71.2971 136.227 70.6883 140.241 70.0818L139.793 67.1155C135.774 67.7227 131.807 68.3323 127.895 68.9442L128.358 71.9081ZM152.181 68.3058C156.16 67.723 160.181 67.1423 164.24 66.5639L163.817 63.5939C159.754 64.1728 155.729 64.754 151.746 65.3375L152.181 68.3058ZM176.106 64.8941C180.094 64.3396 184.113 63.7872 188.16 63.237L187.755 60.2643C183.706 60.815 179.684 61.3678 175.693 61.9227L176.106 64.8941ZM200.105 61.6286C204.074 61.0994 208.064 60.5722 212.072 60.0471L211.682 57.0725C207.672 57.5979 203.68 58.1254 199.709 58.655L200.105 61.6286ZM224.125 58.4803C228.094 57.9682 232.076 57.4582 236.067 56.9502L235.689 53.9742C231.696 54.4824 227.712 54.9927 223.741 55.5049L224.125 58.4803ZM248.066 55.4324C252.066 54.9294 256.071 54.4285 260.078 53.9296L259.707 50.9526C255.699 51.4516 251.693 51.9527 247.692 52.4559L248.066 55.4324ZM272.073 52.4427C276.07 51.9492 280.066 51.4578 284.056 50.9684L283.691 47.9907C279.7 48.4801 275.703 48.9717 271.705 49.4653L272.073 52.4427ZM296.086 49.4972C300.098 49.0077 304.1 48.5205 308.089 48.0354L307.726 45.0573C303.737 45.5424 299.735 46.0297 295.723 46.5192L296.086 49.4972ZM320.033 46.5844C324.082 46.0928 328.113 45.6036 332.122 45.1167L331.761 42.1386C327.751 42.6255 323.72 43.1147 319.671 43.6063L320.033 46.5844ZM344.081 43.6632C348.114 43.1724 352.12 42.6841 356.095 42.1983L355.731 39.2204C351.757 39.7062 347.751 40.1944 343.719 40.6852L344.081 43.6632ZM368.15 40.7204C372.133 40.2304 376.079 39.743 379.984 39.2582L379.614 36.2811C375.71 36.7657 371.765 37.2529 367.783 37.7428L368.15 40.7204ZM392.176 37.7358C396.196 37.2306 400.166 36.7283 404.078 36.229L403.699 33.2532C399.788 33.7522 395.82 34.2542 391.802 34.7592L392.176 37.7358ZM416.147 34.6747C420.218 34.1451 424.217 33.619 428.138 33.0965L427.741 30.1228C423.824 30.6448 419.828 31.1705 415.76 31.6997L416.147 34.6747ZM440.091 31.4804C444.214 30.9143 448.235 30.3524 452.144 29.7949L451.721 26.825C447.817 27.3816 443.801 27.9428 439.682 28.5083L440.091 31.4804ZM464.073 28.0546C468.222 27.4342 472.218 26.8194 476.047 26.2102L475.575 23.2475C471.757 23.855 467.771 24.4684 463.63 25.0876L464.073 28.0546ZM488.123 24.21C492.268 23.4922 496.153 22.7826 499.756 22.0811L499.183 19.1364C495.604 19.8332 491.739 20.5391 487.611 21.254L488.123 24.21ZM511.679 19.541C516.393 18.425 520.31 17.3233 523.31 16.2329L522.285 13.4133C519.441 14.447 515.65 15.5178 510.988 16.6218L511.679 19.541ZM527.611 6.50936C525.133 5.27476 521.021 4.14922 515.256 3.08793L514.713 6.03836C520.451 7.09467 524.201 8.16239 526.273 9.19463L527.611 6.50936ZM503.689 1.32201C501.576 1.04881 499.326 0.778559 496.937 0.511255L496.604 3.49265C498.978 3.75827 501.21 4.02648 503.304 4.29725L503.689 1.32201Z" fill="white"/>
</svg>
