<svg width="1442" height="937" viewBox="0 0 1442 937" fill="none" xmlns="http://www.w3.org/2000/svg">
<path d="M158.271 934.002L147.553 920.396L141.128 936.481L158.271 934.002ZM140.615 925.147C136.706 923.482 132.889 921.812 129.162 920.138L127.932 922.874C131.678 924.557 135.513 926.235 139.439 927.907L140.615 925.147ZM118.25 915.099C114.702 913.415 111.244 911.726 107.874 910.033L106.527 912.713C109.917 914.417 113.396 916.116 116.963 917.809L118.25 915.099ZM98.0275 904.939C94.37 902.989 90.8271 901.034 87.3974 899.073L85.9084 901.678C89.3649 903.654 92.9338 905.623 96.6165 907.586L98.0275 904.939ZM76.3156 892.475C72.762 890.269 69.3481 888.056 66.0719 885.837L64.3894 888.321C67.7001 890.564 71.1475 892.798 74.7333 895.024L76.3156 892.475ZM56.6545 879.161C53.6518 876.929 50.7849 874.691 48.0517 872.448L46.1483 874.766C48.9205 877.042 51.8255 879.309 54.865 881.568L56.6545 879.161ZM38.4503 864.032C35.346 861.116 32.4608 858.191 29.79 855.259L27.572 857.279C30.2984 860.272 33.2386 863.253 36.3963 866.219L38.4503 864.032ZM22.4162 846.438C20.0528 843.337 17.9214 840.228 16.0162 837.111L13.4566 838.676C15.418 841.885 17.6079 845.078 20.0302 848.256L22.4162 846.438ZM10.2582 826.165C8.641 822.506 7.32242 818.837 6.29352 815.158L3.40437 815.966C4.47312 819.787 5.84086 823.592 7.51428 827.378L10.2582 826.165ZM4.04515 803.913C3.57052 800.008 3.40803 796.087 3.54902 792.152L0.550939 792.044C0.404422 796.134 0.573231 800.212 1.06706 804.275L4.04515 803.913ZM4.87485 780.295C5.57734 776.529 6.54628 772.747 7.77529 768.95L4.92105 768.026C3.65457 771.939 2.65303 775.846 1.92571 779.745L4.87485 780.295ZM11.9469 758.152C13.5658 754.539 15.411 750.914 17.477 747.276L14.8683 745.794C12.7585 749.509 10.8696 753.22 9.20925 756.925L11.9469 758.152ZM23.8854 736.982C25.9672 733.904 28.2009 730.819 30.5831 727.726L28.2064 725.896C25.7889 729.034 23.5189 732.169 21.4005 735.301L23.8854 736.982ZM38.1704 718.427C40.8452 715.321 43.6644 712.208 46.6243 709.09L44.4483 707.025C41.4571 710.176 38.6053 713.325 35.897 716.47L38.1704 718.427ZM54.9179 700.691C57.6291 698.048 60.4381 695.4 63.3427 692.749L61.3203 690.534C58.3925 693.206 55.5594 695.876 52.8235 698.544L54.9179 700.691ZM72.3404 684.786C75.4335 682.129 78.6197 679.468 81.8967 676.804L80.0044 674.476C76.7073 677.156 73.5001 679.835 70.3853 682.511L72.3404 684.786ZM91.6025 669.11C94.5894 666.799 97.6425 664.486 100.76 662.171L98.9721 659.762C95.8389 662.089 92.7698 664.414 89.7666 666.737L91.6025 669.11ZM110.307 655.221C113.553 652.903 116.862 650.583 120.233 648.262L118.531 645.791C115.147 648.122 111.824 650.451 108.563 652.78L110.307 655.221ZM130.528 641.294C133.935 639.027 137.399 636.758 140.919 634.489L139.293 631.968C135.762 634.245 132.286 636.521 128.866 638.796L130.528 641.294ZM150.677 628.284C153.976 626.215 157.319 624.145 160.707 622.074L159.142 619.515C155.745 621.591 152.391 623.667 149.083 625.743L150.677 628.284ZM171.001 615.861C174.475 613.789 177.993 611.717 181.553 609.644L180.043 607.052C176.475 609.13 172.948 611.207 169.464 613.284L171.001 615.861ZM192.356 603.425C195.826 601.449 199.334 599.474 202.877 597.498L201.416 594.877C197.865 596.858 194.35 598.838 190.872 600.818L192.356 603.425ZM213.123 591.838C216.571 589.952 220.051 588.065 223.562 586.178L222.142 583.535C218.624 585.426 215.138 587.316 211.683 589.206L213.123 591.838ZM234.188 580.518C237.761 578.631 241.364 576.744 244.997 574.858L243.615 572.195C239.976 574.085 236.366 575.975 232.787 577.865L234.188 580.518ZM255.985 569.198C259.608 567.347 263.258 565.496 266.936 563.646L265.587 560.966C261.904 562.819 258.248 564.673 254.62 566.527L255.985 569.198ZM277.437 558.398C280.961 556.649 284.509 554.901 288.079 553.152L286.76 550.458C283.185 552.208 279.632 553.959 276.103 555.711L277.437 558.398ZM298.858 547.909C302.474 546.161 306.111 544.414 309.771 542.668L308.478 539.96C304.815 541.709 301.173 543.458 297.553 545.208L298.858 547.909ZM320.812 537.429C324.514 535.684 328.236 533.939 331.979 532.195L330.712 529.475C326.965 531.222 323.238 532.969 319.533 534.716L320.812 537.429ZM342.946 527.112C346.514 525.466 350.1 523.822 353.703 522.178L352.458 519.449C348.852 521.094 345.262 522.74 341.69 524.387L342.946 527.112ZM364.563 517.249C368.199 515.606 371.852 513.964 375.52 512.323L374.295 509.585C370.623 511.227 366.967 512.871 363.328 514.515L364.563 517.249ZM386.573 507.402C390.272 505.763 393.987 504.124 397.717 502.486L396.511 499.739C392.778 501.378 389.06 503.019 385.357 504.66L386.573 507.402ZM408.949 497.575C412.653 495.963 416.371 494.351 420.102 492.741L418.913 489.986C415.179 491.598 411.459 493.211 407.752 494.824L408.949 497.575ZM431.021 488.046C434.672 486.481 438.336 484.918 442.012 483.356L440.838 480.595C437.16 482.158 433.494 483.723 429.839 485.288L431.021 488.046ZM453.072 478.672C456.77 477.112 460.48 475.553 464.2 473.994L463.04 471.227C459.318 472.787 455.607 474.347 451.906 475.908L453.072 478.672ZM475.39 469.323C479.131 467.767 482.882 466.212 486.642 464.658L485.496 461.885C481.734 463.44 477.981 464.996 474.238 466.553L475.39 469.323ZM497.952 459.999C501.636 458.487 505.328 456.976 509.029 455.465L507.895 452.688C504.193 454.199 500.498 455.711 496.812 457.224L497.952 459.999ZM520.116 450.955C523.819 449.452 527.53 447.951 531.249 446.451L530.127 443.669C526.406 445.169 522.693 446.671 518.988 448.175L520.116 450.955ZM542.427 441.954C546.159 440.457 549.899 438.961 553.645 437.466L552.533 434.679C548.786 436.175 545.044 437.672 541.31 439.17L542.427 441.954ZM564.903 432.985C568.662 431.492 572.426 430.001 576.197 428.512L575.094 425.721C571.322 427.212 567.556 428.703 563.796 430.196L564.903 432.985ZM587.489 424.061C591.208 422.598 594.933 421.137 598.662 419.677L597.568 416.883C593.838 418.344 590.112 419.806 586.391 421.269L587.489 424.061ZM609.862 415.302C613.6 413.845 617.342 412.389 621.087 410.935L620.002 408.139C616.255 409.593 612.512 411.049 608.773 412.507L609.862 415.302ZM632.335 406.578C636.087 405.127 639.843 403.677 643.602 402.229L642.524 399.43C638.764 400.878 635.007 402.328 631.253 403.78L632.335 406.578ZM654.887 397.89C658.651 396.446 662.417 395.003 666.186 393.561L665.114 390.759C661.345 392.201 657.577 393.644 653.812 395.09L654.887 397.89ZM677.481 389.248C681.237 387.816 684.996 386.385 688.755 384.957L687.69 382.152C683.929 383.581 680.17 385.012 676.412 386.445L677.481 389.248ZM700.038 380.675C703.799 379.25 707.562 377.826 711.325 376.404L710.264 373.598C706.501 375.02 702.737 376.444 698.975 377.87L700.038 380.675ZM722.614 372.144C726.377 370.725 730.141 369.309 733.903 367.894L732.848 365.086C729.084 366.501 725.32 367.918 721.556 369.337L722.614 372.144ZM745.19 363.656C748.951 362.245 752.712 360.836 756.471 359.429L755.419 356.62C751.66 358.027 747.898 359.436 744.136 360.847L745.19 363.656ZM767.793 355.196C771.58 353.781 775.365 352.369 779.148 350.958L778.1 348.147C774.316 349.558 770.53 350.971 766.743 352.386L767.793 355.196ZM790.491 346.733C794.269 345.327 798.045 343.922 801.818 342.52L800.773 339.708C796.999 341.11 793.223 342.515 789.444 343.921L790.491 346.733ZM813.127 338.32C816.894 336.922 820.657 335.526 824.416 334.132L823.373 331.319C819.614 332.713 815.85 334.109 812.083 335.507L813.127 338.32ZM835.682 329.958C839.433 328.569 843.18 327.182 846.922 325.797L845.881 322.984C842.139 324.369 838.392 325.756 834.64 327.145L835.682 329.958ZM858.307 321.587C862.117 320.178 865.922 318.771 869.722 317.367L868.682 314.553C864.882 315.957 861.077 317.364 857.266 318.773L858.307 321.587ZM881.102 313.162C884.89 311.763 888.671 310.367 892.445 308.973L891.406 306.158C887.631 307.553 883.85 308.949 880.063 310.348L881.102 313.162ZM903.748 304.798C907.509 303.409 911.263 302.023 915.009 300.639L913.969 297.825C910.223 299.208 906.47 300.595 902.709 301.984L903.748 304.798ZM926.224 296.495C929.968 295.112 933.705 293.73 937.432 292.352L936.392 289.538C932.664 290.917 928.928 292.298 925.184 293.681L926.224 296.495ZM948.933 288.098C952.758 286.683 956.572 285.271 960.377 283.862L959.335 281.049C955.531 282.458 951.716 283.87 947.892 285.285L948.933 288.098ZM971.76 279.644C975.544 278.24 979.317 276.84 983.079 275.443L982.035 272.631C978.273 274.028 974.5 275.428 970.717 276.831L971.76 279.644ZM994.333 271.261C998.073 269.87 1001.8 268.483 1005.52 267.098L1004.47 264.287C1000.75 265.671 997.026 267.059 993.287 268.449L994.333 271.261ZM1016.63 262.954C1020.46 261.524 1024.27 260.099 1028.07 258.676L1027.02 255.867C1023.22 257.289 1019.41 258.714 1015.58 260.143L1016.63 262.954ZM1039.57 254.366C1043.39 252.933 1047.2 251.503 1050.99 250.077L1049.93 247.27C1046.14 248.695 1042.34 250.124 1038.52 251.557L1039.57 254.366ZM1062.3 245.811C1066.06 244.393 1069.8 242.978 1073.53 241.567L1072.46 238.762C1068.74 240.172 1065 241.586 1061.25 243.004L1062.3 245.811ZM1084.65 237.346C1088.34 235.942 1092.01 234.543 1095.67 233.147L1094.6 230.345C1090.94 231.74 1087.27 233.139 1083.58 234.542L1084.65 237.346ZM1107.11 228.769C1110.97 227.287 1114.81 225.81 1118.63 224.337L1117.56 221.538C1113.74 223.01 1109.9 224.487 1106.03 225.968L1107.11 228.769ZM1130.03 219.932C1133.81 218.469 1137.56 217.01 1141.29 215.556L1140.2 212.76C1136.47 214.214 1132.72 215.672 1128.95 217.135L1130.03 219.932ZM1152.41 211.207C1156.09 209.762 1159.75 208.322 1163.39 206.887L1162.29 204.096C1158.65 205.531 1155 206.97 1151.32 208.414L1152.41 211.207ZM1174.36 202.539C1178.27 200.986 1182.14 199.438 1185.99 197.896L1184.87 195.111C1181.03 196.652 1177.16 198.199 1173.25 199.751L1174.36 202.539ZM1197.43 193.288C1201.22 191.758 1204.97 190.233 1208.69 188.715L1207.55 185.938C1203.84 187.455 1200.09 188.978 1196.31 190.507L1197.43 193.288ZM1219.74 184.179C1223.39 182.673 1227.01 181.173 1230.59 179.68L1229.44 176.911C1225.86 178.403 1222.25 179.901 1218.6 181.406L1219.74 184.179ZM1241.39 175.156C1245.31 173.501 1249.19 171.853 1253.03 170.214L1251.85 167.455C1248.02 169.093 1244.14 170.738 1240.22 172.392L1241.39 175.156ZM1264.4 165.32C1268.14 163.696 1271.84 162.081 1275.49 160.473L1274.28 157.728C1270.64 159.333 1266.94 160.946 1263.21 162.567L1264.4 165.32ZM1286.29 155.676C1289.84 154.086 1293.34 152.503 1296.79 150.929L1295.55 148.2C1292.1 149.771 1288.61 151.35 1285.06 152.939L1286.29 155.676ZM1308.11 145.709C1311.97 143.913 1315.75 142.128 1319.46 140.354L1318.17 137.647C1314.47 139.416 1310.69 141.197 1306.85 142.99L1308.11 145.709ZM1330.39 135.068C1333.95 133.318 1337.45 131.579 1340.87 129.852L1339.52 127.174C1336.11 128.896 1332.62 130.629 1329.07 132.375L1330.39 135.068ZM1351.01 124.652C1354.95 122.594 1358.79 120.554 1362.5 118.532L1361.07 115.897C1357.37 117.91 1353.55 119.942 1349.62 121.991L1351.01 124.652ZM1373.3 112.519C1376.78 110.532 1380.14 108.563 1383.38 106.613L1381.84 104.043C1378.62 105.98 1375.28 107.937 1371.81 109.913L1373.3 112.519ZM1393.21 100.505C1397.05 98.0398 1400.68 95.6048 1404.09 93.2003L1402.36 90.7485C1398.99 93.1255 1395.4 95.5365 1391.59 97.9808L1393.21 100.505ZM1413.66 86.0773C1416.86 83.5533 1419.8 81.0632 1422.47 78.6076L1420.44 76.3994C1417.83 78.7972 1414.95 81.2386 1411.8 83.7226L1413.66 86.0773ZM1431.55 69.1372C1434.17 65.9559 1436.29 62.8218 1437.88 59.7366L1435.21 58.3669C1433.74 61.2222 1431.75 64.1774 1429.24 67.23L1431.55 69.1372ZM1441.25 46.9875C1441.23 43.0334 1440.13 39.2385 1437.93 35.6306L1435.37 37.1914C1437.3 40.3604 1438.23 43.6248 1438.25 47.0029L1441.25 46.9875ZM1428.66 25.8508C1426.02 23.8583 1422.96 21.9364 1419.47 20.0832L1418.06 22.7325C1421.44 24.5252 1424.36 26.3644 1426.86 28.2458L1428.66 25.8508ZM1408.05 14.8574C1404.35 13.3867 1400.34 11.9617 1395.99 10.5823L1395.08 13.4419C1399.37 14.8025 1403.32 16.2039 1406.94 17.6448L1408.05 14.8574ZM1385.48 7.51272C1381.79 6.51575 1377.9 5.54488 1373.81 4.60032L1373.13 7.52338C1377.19 8.46043 1381.04 9.42251 1384.7 10.4092L1385.48 7.51272ZM1360.94 1.84541C1358.69 1.39926 1356.39 0.95972 1354.04 0.526803L1353.5 3.4771C1355.83 3.90762 1358.12 4.34459 1360.35 4.78795L1360.94 1.84541Z" fill="white"/>
</svg>
