<svg width="321" height="655" viewBox="0 0 321 655" fill="none" xmlns="http://www.w3.org/2000/svg">
<path d="M136.5 649L123.647 637.389L120.019 654.325L136.5 649ZM118.629 643.377C114.758 642.404 110.999 641.399 107.35 640.361L106.53 643.246C110.21 644.293 113.998 645.307 117.897 646.287L118.629 643.377ZM96.5862 637.106C92.5054 635.794 88.5772 634.438 84.7979 633.039L83.7563 635.852C87.5784 637.267 91.548 638.638 95.6682 639.962L96.5862 637.106ZM73.9041 628.714C70.2912 627.175 66.8351 625.591 63.5319 623.964L62.2062 626.655C65.5612 628.308 69.0675 629.914 72.7285 631.474L73.9041 628.714ZM52.7542 618.19C49.3594 616.21 46.1605 614.174 43.1513 612.086L41.441 614.551C44.5181 616.686 47.7836 618.764 51.2426 620.781L52.7542 618.19ZM33.6477 604.791C30.6177 602.208 27.8385 599.557 25.3001 596.84L23.1079 598.888C25.7275 601.692 28.5894 604.421 31.7018 607.074L33.6477 604.791ZM17.8623 587.75C15.5865 584.544 13.5991 581.257 11.8864 577.894L9.21314 579.255C10.9932 582.751 13.0568 586.163 15.4158 589.487L17.8623 587.75ZM7.40781 567.124C6.19867 563.438 5.2743 559.67 4.62082 555.823L1.66318 556.325C2.3408 560.315 3.30033 564.228 4.55732 568.059L7.40781 567.124ZM3.46644 544.27C3.3367 540.428 3.44457 536.515 3.77835 532.535L0.788848 532.285C0.445884 536.374 0.334199 540.404 0.468153 544.371L3.46644 544.27ZM5.34223 520.956C6.03838 517.169 6.91718 513.33 7.96918 509.441L5.07325 508.657C4.00132 512.62 3.10378 516.54 2.39169 520.413L5.34223 520.956ZM11.4255 498.232C12.6937 494.554 14.1018 490.836 15.6422 487.081L12.8668 485.943C11.3061 489.746 9.87748 493.518 8.58929 497.255L11.4255 498.232ZM20.3409 476.377C22.0148 472.79 23.7986 469.173 25.6859 465.529L23.022 464.15C21.117 467.828 19.3148 471.482 17.6223 475.109L20.3409 476.377ZM31.2011 455.318C33.125 451.892 35.1325 448.445 37.2185 444.979L34.648 443.432C32.5475 446.923 30.5248 450.396 28.5854 453.849L31.2011 455.318ZM43.4581 434.912C45.5475 431.633 47.7011 428.339 49.9144 425.031L47.4211 423.363C45.196 426.688 43.0303 430.001 40.9282 433.299L43.4581 434.912ZM56.7293 415.068C58.9436 411.897 61.208 408.716 63.5187 405.524L61.0887 403.765C58.7686 406.97 56.4943 410.165 54.2697 413.35L56.7293 415.068ZM70.5659 395.948C72.942 392.769 75.3597 389.582 77.8154 386.388L75.4371 384.559C72.9735 387.764 70.5476 390.962 68.163 394.152L70.5659 395.948ZM85.0454 377.099C87.4887 373.997 89.9642 370.89 92.4687 367.778L90.1316 365.897C87.6209 369.016 85.1388 372.132 82.6886 375.243L85.0454 377.099ZM100.005 358.504C102.494 355.469 105.007 352.431 107.541 349.392L105.237 347.471C102.698 350.516 100.18 353.56 97.6855 356.601L100.005 358.504ZM115.204 340.268C117.765 337.24 120.344 334.212 122.937 331.183L120.659 329.232C118.061 332.265 115.479 335.298 112.914 338.331L115.204 340.268ZM130.678 322.193C133.271 319.197 135.875 316.202 138.488 313.209L136.229 311.236C133.613 314.232 131.005 317.23 128.409 320.23L130.678 322.193ZM146.343 304.246C148.962 301.269 151.587 298.294 154.215 295.323L151.967 293.335C149.338 296.308 146.712 299.285 144.091 302.265L146.343 304.246ZM162.103 286.422C164.74 283.452 167.378 280.488 170.012 277.529L167.771 275.534C165.136 278.493 162.498 281.459 159.86 284.43L162.103 286.422ZM177.953 268.615C180.594 265.651 183.231 262.693 185.858 259.743L183.618 257.748C180.991 260.697 178.355 263.654 175.713 266.619L177.953 268.615ZM193.758 250.865C196.421 247.869 199.071 244.882 201.706 241.906L199.459 239.917C196.826 242.892 194.177 245.877 191.516 248.872L193.758 250.865ZM209.56 233.009C212.193 230.018 214.806 227.039 217.397 224.072L215.138 222.099C212.55 225.062 209.939 228.038 207.308 231.027L209.56 233.009ZM225.272 215.013C227.872 212.007 230.444 209.016 232.986 206.04L230.705 204.092C228.168 207.062 225.599 210.049 223.003 213.05L225.272 215.013ZM240.709 196.934C243.309 193.844 245.872 190.773 248.393 187.721L246.081 185.81C243.566 188.854 241.009 191.919 238.414 195.002L240.709 196.934ZM255.829 178.628C258.395 175.453 260.912 172.302 263.372 169.176L261.015 167.32C258.563 170.435 256.055 173.576 253.496 176.741L255.829 178.628ZM270.668 159.765C273.097 156.579 275.462 153.422 277.757 150.294L275.338 148.52C273.055 151.631 270.701 154.774 268.282 157.946L270.668 159.765ZM284.816 140.45C287.086 137.204 289.271 133.994 291.365 130.822L288.861 129.169C286.783 132.317 284.613 135.505 282.357 138.731L284.816 140.45ZM297.952 120.465C300.041 117.044 302.01 113.673 303.849 110.353L301.224 108.9C299.408 112.179 297.461 115.513 295.392 118.901L297.952 120.465ZM309.493 99.4716C311.237 95.8475 312.804 92.2918 314.179 88.809L311.389 87.7072C310.043 91.1154 308.506 94.6046 306.79 98.1708L309.493 99.4716ZM318.149 77.0738C319.268 73.0374 320.081 69.1112 320.562 65.3043L317.585 64.9288C317.126 68.5736 316.344 72.3568 315.258 76.2724L318.149 77.0738ZM320.911 53.2972C320.58 49.0786 319.733 45.0442 318.324 41.2138L315.509 42.2493C316.815 45.8018 317.609 49.5645 317.92 53.5318L320.911 53.2972ZM312.53 30.5735C310.202 27.4631 307.382 24.5565 304.048 21.8612L302.162 24.1942C305.318 26.7457 307.961 29.4753 310.129 32.3711L312.53 30.5735ZM293.726 15.0722C290.507 13.3377 286.987 11.7254 283.154 10.2379L282.068 13.0347C285.798 14.4821 289.204 16.0434 292.302 17.713L293.726 15.0722ZM271.191 6.28756C267.715 5.3144 264.039 4.41846 260.159 3.60133L259.541 6.53694C263.363 7.34173 266.974 8.22239 270.382 9.17648L271.191 6.28756ZM248.151 1.42674C246.049 1.10264 243.897 0.797791 241.693 0.512417L241.307 3.48758C243.488 3.76996 245.617 4.07142 247.694 4.3917L248.151 1.42674Z" fill="white"/>
</svg>
