<svg width="16" height="9" viewBox="0 0 16 9" fill="none" xmlns="http://www.w3.org/2000/svg">
<path d="M0.77093 4.90135C3.89768 4.99754 7.0224 5.08356 10.1482 5.20647C11.0232 5.24087 11.8963 5.26304 12.7693 5.33443C12.9615 5.35015 13.2573 5.42048 13.4555 5.35785C13.628 5.30339 13.094 5.31762 12.9212 5.2644C12.6773 5.1893 12.5427 5.10348 12.5524 4.84171" stroke="white" stroke-linecap="round" stroke-linejoin="round"/>
<path d="M10.3021 3.53748C11.0936 3.8387 11.9347 4.14607 12.6518 4.49737C12.9728 4.65459 13.3236 4.80348 13.7164 4.90693C13.9687 4.97336 14.1814 5.10397 14.4473 5.15342C14.7987 5.21877 14.4345 5.21721 14.3025 5.23213C13.7141 5.29866 13.1431 5.69248 12.7679 5.91504C12.2594 6.21668 11.7522 6.51929 11.284 6.8373C10.9758 7.04665 10.6071 7.23016 10.3479 7.4577C10.2115 7.57735 10.1443 7.06798 10.1588 7.00555" stroke="white" stroke-linecap="round" stroke-linejoin="round"/>
<path d="M10.2616 4.34611C10.2317 4.1331 10.1415 3.91348 10.1906 3.70191C10.195 3.68261 10.2532 3.43598 10.3019 3.46864C10.385 3.52448 10.2471 3.83798 10.2581 3.90371C10.3354 4.36632 10.3438 4.83457 10.3916 5.29889C10.4365 5.73484 10.2974 7.04201 10.398 6.60864C10.4516 6.37759 10.5773 6.1528 10.6314 5.91957C10.6563 5.81241 10.7309 5.49093 10.706 5.59809C10.6635 5.78131 10.6268 5.96522 10.5744 6.14773C10.4854 6.45731 10.3628 6.76044 10.2905 7.07182C10.1379 7.72961 10.6987 5.75885 10.7122 5.09622C10.7178 4.82407 10.6958 4.00968 10.6443 4.2805C10.5297 4.88292 10.4942 5.54482 10.5412 6.1499C10.5512 6.27909 10.591 6.41051 10.561 6.53968C10.5209 6.71242 10.6417 6.19406 10.6652 6.02047C10.7558 5.34896 10.739 4.71175 10.5892 4.043C10.5863 4.03006 10.5271 3.77185 10.5174 3.89459C10.4865 4.28554 10.5621 4.68245 10.6075 5.07233C10.6612 5.53324 10.6622 5.99507 10.7234 6.45565C10.739 6.57313 10.7508 6.95756 10.8374 6.61536C11.0375 5.82557 11.0014 4.96105 10.7126 4.1797C10.7039 4.15621 10.5633 3.69935 10.4482 3.7356C10.1685 3.82365 10.3211 4.6282 10.3253 4.7752C10.3456 5.48575 10.5178 6.19648 10.5455 6.90572C10.5682 7.48939 10.6478 5.73933 10.7186 5.15673C10.7471 4.92245 10.7708 4.68638 10.7679 4.45156C10.7647 4.18985 10.7572 4.4843 10.7636 4.57578C10.7718 4.69362 10.7356 6.69235 10.9093 6.69294C11.417 6.69468 11.6058 4.72683 11.5637 4.43605C11.5321 4.21826 11.3248 4.65779 11.3182 4.68432C11.2211 5.07907 11.243 5.47928 11.2254 5.8761C11.2189 6.02255 11.2559 6.16275 11.2721 6.30838C11.2972 6.5341 11.4532 5.86502 11.4885 5.63969C11.5589 5.1911 11.8029 3.85815 11.5608 4.28991C11.2645 4.81866 11.2819 5.48202 11.357 6.03049C11.4234 6.51583 11.6599 5.06486 11.6409 4.57837C11.6354 4.43757 11.7727 4.05282 11.5918 4.15666C11.5271 4.19378 11.5232 4.29365 11.5133 4.33623C11.4538 4.59302 11.4282 4.85244 11.4071 5.11073C11.3789 5.45613 11.3992 5.80212 11.3707 6.14728C11.3673 6.1893 11.2927 6.61923 11.4474 6.36255C11.7967 5.78269 12.1162 3.95531 11.9761 4.55909C11.8888 4.93519 11.8546 5.31051 11.8201 5.68885C11.8156 5.73795 11.7563 6.46325 11.8845 6.15018C12.0301 5.79478 12.1164 5.43145 12.168 5.06937C12.1767 5.00856 12.3225 4.4951 12.1761 4.80588C12.0699 5.03124 12.0222 5.2666 11.9829 5.49753C11.9753 5.54217 11.8982 6.0151 12.0061 5.76732C12.1471 5.44316 12.3687 4.45103 12.2921 4.78112C12.2664 4.89172 11.8815 5.96968 12.0304 5.97923C12.217 5.9912 12.4025 5.24795 12.421 5.17575C12.4667 4.99727 12.5911 4.46649 12.4768 4.63627C12.3557 4.81623 12.3757 5.05444 12.3319 5.24301C12.3224 5.28416 12.2534 5.79249 12.2797 5.78486C12.5588 5.70393 12.6258 5.22122 12.6648 5.07547C12.6823 5.00981 12.7368 4.65246 12.7368 4.9234C12.7368 5.13727 12.6051 5.35992 12.6394 5.57182C12.6669 5.74147 12.946 5.23869 12.9611 5.20609C13.1761 4.74326 12.9616 5.37989 12.9287 5.52169C12.8848 5.71097 13.319 4.7901 13.2751 4.97938C13.2457 5.1061 13.05 5.74015 13.3458 5.30803C13.4262 5.1906 13.6038 4.82965 13.5751 4.95354C13.5449 5.08351 13.3943 5.21926 13.4134 5.351C13.4287 5.4566 13.5472 5.15046 13.5861 5.04655C13.6281 4.93469 13.665 4.74751 13.3502 4.8318C13.0354 4.91605 12.7903 5.05928 12.5629 5.19773C12.4294 5.279 12.1281 5.57385 11.9227 5.59884C11.8069 5.61292 11.5534 4.73268 11.5312 4.64646C11.4271 4.24292 11.1833 5.44167 11.0895 5.84592C11.047 6.02919 11.0573 5.75118 11.0495 5.70168C10.996 5.36424 11.0251 5.02379 10.9583 4.687C10.9003 4.39475 10.8379 4.84409 10.8332 4.89148C10.8006 5.22117 10.6529 5.58919 10.7792 5.91617C10.833 6.05535 10.904 5.8929 10.9276 5.83983C11.0695 5.51982 11.0713 5.17735 11.1 4.85063C11.1126 4.70675 11.1599 4.27578 11.1267 4.41876C11.0659 4.68087 11.1211 4.92848 11.1683 5.18986C11.2059 5.39875 11.1385 5.69957 11.3572 5.88884C11.4809 5.99585 11.6789 5.48809 11.6851 5.46126C11.7288 5.27292 11.7165 5.07613 11.6753 4.88752C11.6242 4.65332 11.4361 5.03669 11.415 5.07689C11.2834 5.32687 11.2245 5.58105 11.1649 5.83787C11.126 6.00514 11.1929 5.96108 11.2377 5.82322C11.3428 5.49924 11.3481 5.16201 11.3814 4.83433C11.3859 4.79032 11.3808 4.1872 11.3377 4.47736C11.2799 4.8664 11.2763 5.25793 11.2457 5.64773C11.2293 5.85766 11.2156 6.06779 11.1935 6.27758C11.1845 6.36287 11.0088 6.55353 11.1668 6.53345C11.3349 6.51207 11.3524 5.9323 11.3611 5.87192C11.4229 5.44271 11.3755 4.99096 11.5373 4.56744C11.627 4.33253 11.5829 5.0461 11.5911 5.28566C11.5944 5.38288 11.4859 6.21852 11.7263 6.26882C11.8709 6.29907 12.599 4.89894 12.6956 4.74904C12.7676 4.63743 12.6138 4.84752 12.6028 4.86758C12.532 4.99642 12.5056 5.12813 12.4748 5.26076C12.4624 5.31395 12.5468 5.1558 12.5767 5.13851C12.6946 5.07026 12.6266 5.32188 12.623 5.41408C12.6176 5.54999 12.4359 5.87213 12.6755 5.82098C12.879 5.77755 12.9878 5.39899 13.0522 5.30637C13.07 5.28071 13.2916 4.90816 13.251 5.08301C13.2135 5.24478 13.2481 5.49013 13.1139 5.63874C13.0865 5.66912 12.6729 5.23396 12.6373 5.19391" stroke="white" stroke-linecap="round" stroke-linejoin="round"/>
</svg>
