<svg width="16" height="9" viewBox="0 0 16 9" fill="none" xmlns="http://www.w3.org/2000/svg">
<path d="M14.9765 4.90197C11.8498 4.99815 8.72503 5.08417 5.59919 5.20708C4.72422 5.24148 3.85111 5.26365 2.97815 5.33504C2.78596 5.35076 2.49016 5.42109 2.2919 5.35847C2.11947 5.304 2.65345 5.31823 2.82626 5.26501C3.07013 5.18991 3.20475 5.10409 3.19504 4.84232" stroke="white" stroke-linecap="round" stroke-linejoin="round"/>
<path d="M5.44531 3.53809C4.65388 3.83931 3.81269 4.14668 3.0956 4.49798C2.77468 4.6552 2.42383 4.80409 2.03099 4.90754C1.77874 4.97397 1.56599 5.10458 1.30012 5.15403C0.948707 5.21938 1.31298 5.21782 1.44497 5.23274C2.03334 5.29927 2.60431 5.69309 2.97952 5.91565C3.48804 6.21729 3.99521 6.5199 4.46345 6.83791C4.77168 7.04726 5.14033 7.23077 5.39958 7.45831C5.5359 7.57796 5.60313 7.06859 5.58865 7.00616" stroke="white" stroke-linecap="round" stroke-linejoin="round"/>
<path d="M5.48587 4.34672C5.51576 4.13371 5.60597 3.91409 5.55687 3.70252C5.55239 3.68322 5.4942 3.43659 5.44557 3.46925C5.36244 3.52509 5.50035 3.83859 5.48937 3.90432C5.41205 4.36693 5.40364 4.83518 5.35581 5.2995C5.31091 5.73545 5.45001 7.04262 5.34944 6.60925C5.29582 6.3782 5.17015 6.15342 5.11602 5.92018C5.09116 5.81302 5.01655 5.49154 5.04142 5.5987C5.08394 5.78192 5.1206 5.96583 5.17306 6.14834C5.26204 6.45792 5.38466 6.76105 5.45692 7.07243C5.60958 7.73023 5.04873 5.75946 5.0352 5.09683C5.02964 4.82468 5.05163 4.01029 5.10315 4.28111C5.21773 4.88353 5.25322 5.54543 5.20623 6.15051C5.19619 6.2797 5.15646 6.41112 5.18643 6.54029C5.22652 6.71303 5.10569 6.19467 5.08227 6.02108C4.99168 5.34957 5.00847 4.71236 5.15828 4.04361C5.16118 4.03067 5.22029 3.77246 5.23 3.8952C5.26093 4.28615 5.18533 4.68306 5.13991 5.07294C5.08621 5.53385 5.08527 5.99568 5.02402 6.45626C5.00839 6.57374 4.99668 6.95818 4.91 6.61597C4.70993 5.82618 4.74607 4.96166 5.03484 4.18031C5.04352 4.15682 5.18414 3.69996 5.29927 3.73621C5.57894 3.82426 5.42631 4.62881 5.42211 4.77581C5.40182 5.48636 5.22963 6.19709 5.20196 6.90633C5.17919 7.49 5.09959 5.73994 5.02883 5.15734C5.00037 4.92306 4.97662 4.68699 4.97951 4.45217C4.98274 4.19046 4.99023 4.48491 4.98384 4.57639C4.97561 4.69423 5.01179 6.69296 4.83817 6.69355C4.33043 6.69529 4.14163 4.72744 4.18375 4.43666C4.2153 4.21887 4.42267 4.6584 4.4292 4.68493C4.52634 5.07968 4.5044 5.47989 4.52203 5.87671C4.52853 6.02316 4.49156 6.16336 4.47535 6.30899C4.45021 6.53471 4.29428 5.86563 4.25891 5.6403C4.18852 5.19172 3.94458 3.85876 4.18659 4.29052C4.48296 4.81927 4.46551 5.48263 4.39044 6.0311C4.32402 6.51644 4.08755 5.06547 4.10653 4.57898C4.11203 4.43818 3.97469 4.05343 4.15567 4.15727C4.22035 4.19439 4.22421 4.29427 4.23409 4.33684C4.29368 4.59363 4.31926 4.85305 4.34033 5.11134C4.3685 5.45675 4.34827 5.80273 4.37671 6.14789C4.38017 6.18991 4.45475 6.61984 4.30009 6.36316C3.9507 5.7833 3.6312 3.95592 3.77131 4.5597C3.85859 4.9358 3.89287 5.31112 3.92733 5.68946C3.9318 5.73856 3.99111 6.46386 3.86289 6.15079C3.71734 5.79539 3.63099 5.43206 3.5794 5.06998C3.57074 5.00917 3.42494 4.49571 3.57134 4.80649C3.6775 5.03185 3.72525 5.26721 3.76451 5.49814C3.7721 5.54278 3.84922 6.01571 3.74137 5.76793C3.60029 5.44377 3.37874 4.45164 3.45534 4.78173C3.48101 4.89233 3.86594 5.97029 3.71705 5.97984C3.53041 5.99181 3.34492 5.24856 3.32642 5.17636C3.28069 4.99788 3.15638 4.4671 3.27065 4.63688C3.39177 4.81684 3.37177 5.05505 3.41553 5.24362C3.42508 5.28477 3.49408 5.7931 3.46778 5.78547C3.18868 5.70454 3.12165 5.22183 3.08266 5.07608C3.06509 5.01042 3.0106 4.65307 3.01062 4.92401C3.01063 5.13788 3.14233 5.36053 3.10801 5.57243C3.08054 5.74208 2.80145 5.2393 2.78631 5.2067C2.57132 4.74387 2.78581 5.3805 2.81871 5.5223C2.86264 5.71158 2.42844 4.79071 2.47236 4.97999C2.50177 5.10671 2.69744 5.74076 2.40163 5.30864C2.32125 5.19121 2.14362 4.83026 2.17237 4.95415C2.20253 5.08412 2.35311 5.21987 2.33402 5.35161C2.31873 5.45721 2.20021 5.15107 2.16129 5.04716C2.11938 4.9353 2.08245 4.74812 2.39728 4.83241C2.712 4.91666 2.95709 5.05989 3.18453 5.19834C3.31804 5.27961 3.6193 5.57446 3.82477 5.59945C3.94054 5.61353 4.19401 4.73329 4.21625 4.64707C4.32034 4.24353 4.56413 5.44228 4.65794 5.84653C4.70047 6.0298 4.69013 5.75179 4.69796 5.70229C4.75139 5.36485 4.72235 5.0244 4.78915 4.68761C4.84712 4.39536 4.90949 4.8447 4.91419 4.89209C4.94687 5.22178 5.09456 5.5898 4.96824 5.91678C4.91447 6.05596 4.8434 5.89351 4.81986 5.84044C4.67791 5.52043 4.67611 5.17796 4.64746 4.85124C4.63484 4.70736 4.58756 4.2764 4.62074 4.41937C4.68157 4.68148 4.62634 4.92909 4.57919 5.19047C4.5415 5.39936 4.60897 5.70018 4.39023 5.88945C4.26657 5.99646 4.06857 5.4887 4.06234 5.46187C4.01863 5.27353 4.03098 5.07674 4.07211 4.88814C4.12319 4.65393 4.31132 5.0373 4.33247 5.0775C4.46399 5.32748 4.52297 5.58166 4.58257 5.83848C4.62139 6.00575 4.55449 5.96169 4.50976 5.82383C4.40461 5.49985 4.39938 5.16262 4.36602 4.83494C4.36153 4.79093 4.36665 4.18781 4.40976 4.47797C4.46756 4.86701 4.47112 5.25854 4.5017 5.64834C4.51816 5.85827 4.53185 6.0684 4.55395 6.27819C4.56293 6.36348 4.73859 6.55414 4.58066 6.53406C4.41257 6.51268 4.395 5.93291 4.38631 5.87253C4.32454 5.44332 4.37194 4.99157 4.21016 4.56805C4.12043 4.33314 4.16457 5.04671 4.15634 5.28627C4.153 5.38349 4.26156 6.21913 4.02109 6.26944C3.8765 6.29968 3.14847 4.89955 3.05182 4.74965C2.97985 4.63804 3.13363 4.84813 3.14466 4.86819C3.21548 4.99703 3.24188 5.12874 3.27265 5.26137C3.285 5.31457 3.20068 5.15641 3.17078 5.13912C3.0528 5.07088 3.12087 5.32249 3.12449 5.41469C3.12982 5.5506 3.31154 5.87274 3.07192 5.82159C2.86843 5.77816 2.75968 5.3996 2.69525 5.30698C2.67739 5.28132 2.45584 4.90877 2.49641 5.08362C2.53395 5.24539 2.49937 5.49074 2.63355 5.63935C2.66098 5.66973 3.07453 5.23457 3.11014 5.19452" stroke="white" stroke-linecap="round" stroke-linejoin="round"/>
</svg>
