<svg width="15" height="15" viewBox="0 0 15 15" fill="none" xmlns="http://www.w3.org/2000/svg">
<path d="M8.32925 7.50053L14.8294 1.00036C15.0582 0.771503 15.0582 0.400463 14.8294 0.17164C14.6005 -0.0571839 14.2295 -0.0572132 14.0007 0.17164L7.5005 6.67181L1.00036 0.17164C0.771503 -0.0572132 0.400463 -0.0572132 0.17164 0.17164C-0.0571839 0.400493 -0.0572132 0.771533 0.17164 1.00036L6.67178 7.5005L0.17164 14.0007C-0.0572132 14.2295 -0.0572132 14.6006 0.17164 14.8294C0.286051 14.9438 0.436032 15.001 0.586013 15.001C0.735993 15.001 0.885944 14.9438 1.00039 14.8294L7.5005 8.32924L14.0006 14.8294C14.1151 14.9438 14.265 15.001 14.415 15.001C14.565 15.001 14.7149 14.9438 14.8294 14.8294C15.0582 14.6005 15.0582 14.2295 14.8294 14.0007L8.32925 7.50053Z" fill="#E10B0B"/>
</svg>
