<svg width="183" height="102" viewBox="0 0 183 102" fill="none" xmlns="http://www.w3.org/2000/svg">
<path d="M10 48.2C10 48.2 15.5 51 41.6 44.8C47.5 43.4 51.3 42.6 55 43.2C55 43.2 58.2 46.6 51 49.7C43.8 52.8 33.7 60.2 33.7 60.2C33.7 60.2 19.1 63.9 17.7 63.8C16.3 63.7 10.4 64.5 7.09999 59.1C3.79999 53.7 10 48.2 10 48.2Z" fill="url(#paint0_linear)"/>
<path d="M10 48.2C10 48.2 15.5 51 41.6 44.8C47.4 43.5 51.3 42.6 55 43.2C55 43.2 58.2 46.6 51 49.7C43.8 52.8 33.7 60.2 33.7 60.2C33.7 60.2 19.1 63.9 17.7 63.8C16.3 63.7 10.4 64.5 7.09999 59.1C3.79999 53.7 10 48.2 10 48.2Z" fill="url(#paint1_linear)"/>
<path opacity="0.43" d="M26.3 56.4C10.8 60.3 11.3 56.6 11.3 56.6C11.3 56.6 9.49999 53.8 7.79999 50.8C6.39999 52.9 5.19999 56.1 7.09999 59.1C10.4 64.5 16.4 63.7 17.7 63.8C19 63.9 33.7 60.2 33.7 60.2C38.4624 56.7541 43.4391 53.6144 48.6 50.8C43 52 35.1 54.1 26.3 56.4Z" fill="url(#paint2_linear)"/>
<path d="M53 0C53 0 65.6 14.2 40.7 32.7C14 52.5 7 64.1 18 63.8C18 63.8 2.59999 67.6 0.199992 52.9C-1.20001 44.2 4.49999 39 11.7 33.1C11.7 33.1 36.3 15.5 53 0Z" fill="url(#paint3_linear)"/>
<path d="M40 75.3C40 75.3 31.5 89.7 47.1 101.2C47.2 101.3 47.1 101.6 46.9 101.5C43.5948 100.314 40.3854 98.8766 37.3 97.2C27.6 91.8 35.1 80.6 40 75.3Z" fill="url(#paint4_linear)"/>
<path d="M40 75.3C40 75.3 31.5 89.7 47.1 101.2C47.2 101.3 47.1 101.6 46.9 101.5C44.4 100.7 38.7 98.5 36.2 96.2C28.1 88.6 35.1 80.6 40 75.3Z" fill="url(#paint5_linear)"/>
<path d="M64.1 50.7C63.6 43.9 54.3 43.1 54.3 43.1C59.9 46.1 42.8 49.8 30.3 63.7C21.4 73.7 25 83.8 25 83.8C27.8 93.1 37.3 97.2 37.3 97.2C22 75.1 65 63.2 64.1 50.7Z" fill="url(#paint6_linear)"/>
<path d="M64.1 50.7C63.8 43.9 54.3 43.1 54.3 43.1C59.9 46.1 42.8 49.8 30.3 63.7C21.4 73.7 25 83.8 25 83.8C27.8 93.1 37.3 97.2 37.3 97.2C22 75.1 63.9 63.7 64.1 50.7Z" fill="url(#paint7_linear)"/>
<path style="mix-blend-mode:color-burn" d="M26.5 30.9C55.3 10.4 53 0 53 0C38.3 14.1 11.7 33.1 11.7 33.1C4.19999 39.2 -1.20001 44.2 0.199992 52.9C2.59999 67.6 18 63.8 18 63.8C0.0999947 67.2 -3.20001 52.1 26.5 30.9Z" fill="url(#paint8_linear)"/>
<path opacity="0.25" d="M53 0C53 0 55.3 10.4 26.5 30.9C3.79999 47.1 0.399992 59.8 7.99999 63.3C10.2877 64.0494 12.6976 64.3549 15.1 64.2C16.0771 64.1585 17.0481 64.0245 18 63.8C6.99999 64.1 14 52.5 40.7 32.7C65.6 14.2 53 0 53 0Z" fill="url(#paint9_linear)"/>
<path d="M57.4 52.3C62.5 48.6 59.8 45.4 59.6 45.1C57.9947 44.066 56.1882 43.3843 54.3 43.1C59.9 46.1 42.8 49.8 30.3 63.7C21.4 73.7 25 83.8 25 83.8C27.8 93.1 37.3 97.2 37.3 97.2C9 80.6 51.8 56.4 57.4 52.3Z" fill="url(#paint10_linear)"/>
<path style="mix-blend-mode:soft-light" opacity="0.17" d="M54.3 43.1C56.1882 43.3843 57.9947 44.066 59.6 45.1C59.8 45.4 62.5 48.6 57.4 52.3C52.3 56 8.39999 79.8 37.3 97.2C22 75.1 63.9 63.7 64.1 50.7C63.8 43.9 54.3 43.1 54.3 43.1Z" fill="url(#paint11_linear)"/>
<path d="M107.7 66.1C106.5 64.9 105.9 62 105.9 59.9C106.265 56.205 106.833 52.5329 107.6 48.9C108.1 46.3 108.7 43.5 109.3 40.5C107.1 44.2 99.4 54.7 97.3 57.7C95.2 60.7 95.7 62 93.1 62.1C92.2 62.2 91.2 61.6 91 59.1C90.8 56.6 91.5 53 92.1 49C92.5 46.6 92.9 44.1 93.4 41.3C90.4 45.5 83.8 57.9 82.1 60.3C80.4 62.7 80.8 66.2 77.6 64.4C76.3 63.7 76.3 62.4 78.3 59.4C79.1 58.2 83.3 50.7 85 47.9C86.7 45.1 93.4 36.5 94.3 35.9C95.2 35.3 95.7 35.5 96.6 35.9C99.4 37.3 98.5 39 98.2 40.3C97.9 41.6 97.4 44.7 96.7 48.2C96 51.7 96 52.6 95.6 55.2C100.9 49.9 107.3 38.5 108.7 37.9C110.1 37.3 112.7 38.2 113.3 41.4C113.9 44.6 110.9 55 110.3 59.8C110.089 61.3997 110.521 63.0177 111.5 64.3C112 64.5 111.4 66.7 110.1 67.2C109.635 67.3635 109.125 67.3401 108.678 67.1349C108.23 66.9297 107.879 66.5587 107.7 66.1Z" fill="#F9F9F9"/>
<path d="M127.9 57.8C126.7 58.6 119.8 62.2 117 62.9C114.2 63.6 112.9 61.3 113.3 59.7C114.01 57.0618 115.387 54.6509 117.3 52.7C119.4 50.8 121.1 50.5 121.9 50.6C122.7 50.7 124.6 52.6 124.8 54.2C125 55.8 122.5 57.2 120.9 57.9C119.3 58.6 117.9 59.7 116.9 58C116.6 58.4 115.9 59.8 118 59.7C121.325 59.0713 124.531 57.924 127.5 56.3C130.3 54.7 129.1 57.1 127.9 57.8ZM118.7 55.9C119.4 55.7 121 55 121.2 54C120.194 54.3663 119.322 55.0287 118.7 55.9Z" fill="#F9F9F9"/>
<path d="M152.5 37.7C149.832 40.965 147.488 44.4816 145.5 48.2C146.506 48.17 147.508 48.0697 148.5 47.9C151.1 47.6 151.5 47.8 151.4 48.1C150.967 48.8319 150.372 49.4554 149.662 49.9232C148.951 50.391 148.144 50.6909 147.3 50.8L143.7 51.4C143.3 52.3 142.7 53.2 142.2 54.3C136.7 65.3 135.7 69.5 135.3 70.9C134.9 72.3 133.8 72.9 133 71.8C132.2 70.7 132.5 68.3 133.7 65.6C134.9 62.9 137.1 57.3 139.3 52.1L137.4 52.3C136.8 52.3 136.5 51.9 136.2 51.2L135.1 51.4C134.7 52.3 134.1 53.2 133.6 54.3C128.1 65.3 128.2 66.6 127.8 67.9C127.4 69.2 126.3 69.9 125.5 68.8C124.7 67.7 125 65.3 126.2 62.6C127.4 59.9 128.5 57.3 130.7 52.1L128.8 52.3C127.5 52.4 126.9 49.3 127.9 48.9C128.9 48.5 128.8 48.7 130.1 48.6H132.4C133.5 46.2 134.6 44.1 135.5 42.5C138.9 37 140 35.3 141 35.4C142.164 35.8374 143.222 36.5194 144.1 37.4C144.1 37.9 143.6 37.9 143.3 38.3C140.939 41.4819 138.8 44.8232 136.9 48.3C137.906 48.27 138.908 48.1698 139.9 48H141.3C142.4 45.9 143.3 44 144.1 42.6C147.5 37.1 149.2 34.8 150.1 35C151 35.2 153.1 36.5 153.2 37C153.3 37.5 152.8 37.2 152.5 37.7Z" fill="#F9F9F9"/>
<path d="M159.9 57.8C158.7 58.6 151.7 62.2 148.9 62.9C146.1 63.6 144.9 61.3 145.2 59.7C145.912 57.0402 147.328 54.6219 149.3 52.7C151.3 50.8 153 50.5 153.9 50.6C154.8 50.7 156.5 52.6 156.7 54.2C156.9 55.8 154.4 57.2 152.8 57.9C151.2 58.6 149.9 59.7 148.9 58C148.5 58.4 147.9 59.8 149.9 59.7C153.262 59.0898 156.503 57.9417 159.5 56.3C162.3 54.7 161.1 57.1 159.9 57.8ZM150.7 55.9C151.4 55.7 153 55 153.2 54C152.177 54.3351 151.297 55.0043 150.7 55.9Z" fill="#F9F9F9"/>
<path d="M164.5 48C165.4 49 166.8 47.9 165.9 51.2C165 54.5 164 57.2 164 58.9C166.3 58.2 170.7 51.8 171.7 50.1C172.7 48.4 172.6 49.8 172.6 51.1C172.328 53.0077 171.609 54.824 170.5 56.4C168.594 59.1927 166.145 61.5733 163.3 63.4C163.087 63.5847 162.836 63.7197 162.565 63.7954C162.294 63.8712 162.009 63.8856 161.731 63.8378C161.454 63.7899 161.19 63.6809 160.96 63.5188C160.73 63.3566 160.539 63.1452 160.4 62.9C158.5 60.1 161.3 52.7 161.5 51.3C161.7 49.9 161.2 49.2 162 48.5C162.8 47.8 163.6 47 164.5 48Z" fill="#F9F9F9"/>
<path d="M182 57.1C181.1 60.3 177.1 62.7 174.5 62.1C171.9 61.5 171.9 58.3 173 56.8C174.1 55.3 176.4 52.3 177.8 52H178.3C178.1 51.8 178 51.6 177.8 51.5C177.6 51.4 178.2 50.6 178.9 51.1C179.6 51.6 182.9 53.9 182 57.1ZM178.5 57C178.856 56.4321 179.03 55.7694 179 55.1C177.925 56.0059 177.012 57.088 176.3 58.3C176.2 58.7 177.8 58.1 178.5 57Z" fill="#F9F9F9"/>
<defs>
<linearGradient id="paint0_linear" x1="6.89983" y1="59.1879" x2="55.2261" y2="43.1119" gradientUnits="userSpaceOnUse">
<stop stop-color="#262262"/>
<stop offset="0.5" stop-color="#662D91"/>
<stop offset="0.67" stop-color="#642C8E"/>
<stop offset="0.8" stop-color="#5C2A85"/>
<stop offset="0.91" stop-color="#4E2675"/>
<stop offset="1" stop-color="#3E2262"/>
</linearGradient>
<linearGradient id="paint1_linear" x1="6.89983" y1="59.1879" x2="55.2261" y2="43.1119" gradientUnits="userSpaceOnUse">
<stop stop-color="#17224D"/>
<stop offset="0.1" stop-color="#30235B" stop-opacity="0.79"/>
<stop offset="0.32" stop-color="#5B2572" stop-opacity="0.45"/>
<stop offset="0.54" stop-color="#7A2682" stop-opacity="0.2"/>
<stop offset="0.76" stop-color="#8C278C" stop-opacity="0.05"/>
<stop offset="1" stop-color="#92278F" stop-opacity="0"/>
</linearGradient>
<linearGradient id="paint2_linear" x1="7.18076" y1="60.0324" x2="47.2803" y2="46.6931" gradientUnits="userSpaceOnUse">
<stop stop-color="#92278F" stop-opacity="0"/>
<stop offset="0.05" stop-color="#942A8F" stop-opacity="0.16"/>
<stop offset="0.13" stop-color="#982D90" stop-opacity="0.38"/>
<stop offset="0.22" stop-color="#9B3090" stop-opacity="0.58"/>
<stop offset="0.32" stop-color="#9D3390" stop-opacity="0.73"/>
<stop offset="0.43" stop-color="#9F3591" stop-opacity="0.85"/>
<stop offset="0.55" stop-color="#A03691" stop-opacity="0.94"/>
<stop offset="0.71" stop-color="#A13791" stop-opacity="0.99"/>
<stop offset="1" stop-color="#A13791"/>
</linearGradient>
<linearGradient id="paint3_linear" x1="-2.74891" y1="44.6608" x2="61.6513" y2="23.2377" gradientUnits="userSpaceOnUse">
<stop stop-color="#1C75BC"/>
<stop offset="0.5" stop-color="#00AEEF"/>
<stop offset="1" stop-color="#4FD5DF"/>
</linearGradient>
<linearGradient id="paint4_linear" x1="42.8061" y1="102.909" x2="34.252" y2="77.1948" gradientUnits="userSpaceOnUse">
<stop stop-color="#DA1C5C"/>
<stop offset="0.5" stop-color="#9E1F63"/>
<stop offset="1" stop-color="#9E1F63"/>
</linearGradient>
<linearGradient id="paint5_linear" x1="42.939" y1="102.865" x2="34.3849" y2="77.1506" gradientUnits="userSpaceOnUse">
<stop stop-color="#DA1C5C"/>
<stop offset="1" stop-color="#351840"/>
</linearGradient>
<linearGradient id="paint6_linear" x1="22.9371" y1="77.7444" x2="68.2839" y2="62.6596" gradientUnits="userSpaceOnUse">
<stop stop-color="#EE2A7B"/>
<stop offset="0.5" stop-color="#DA1C5C"/>
<stop offset="1" stop-color="#9E1F63"/>
</linearGradient>
<linearGradient id="paint7_linear" x1="22.9371" y1="77.7444" x2="68.3503" y2="62.6375" gradientUnits="userSpaceOnUse">
<stop stop-color="#EE2A7B" stop-opacity="0"/>
<stop offset="0.02" stop-color="#EE2B7B" stop-opacity="0.09"/>
<stop offset="0.07" stop-color="#EF2D7A" stop-opacity="0.3"/>
<stop offset="0.12" stop-color="#F02F79" stop-opacity="0.49"/>
<stop offset="0.18" stop-color="#F13078" stop-opacity="0.65"/>
<stop offset="0.23" stop-color="#F13278" stop-opacity="0.77"/>
<stop offset="0.29" stop-color="#F13378" stop-opacity="0.87"/>
<stop offset="0.35" stop-color="#F23377" stop-opacity="0.94"/>
<stop offset="0.42" stop-color="#F23477" stop-opacity="0.99"/>
<stop offset="0.5" stop-color="#F23477"/>
<stop offset="0.56" stop-color="#F13477" stop-opacity="0.98"/>
<stop offset="0.63" stop-color="#EC3376" stop-opacity="0.93"/>
<stop offset="0.69" stop-color="#E53174" stop-opacity="0.84"/>
<stop offset="0.76" stop-color="#DB2E71" stop-opacity="0.72"/>
<stop offset="0.82" stop-color="#CE2B6E" stop-opacity="0.57"/>
<stop offset="0.89" stop-color="#BD276A" stop-opacity="0.37"/>
<stop offset="0.96" stop-color="#AB2266" stop-opacity="0.15"/>
<stop offset="1" stop-color="#9E1F63" stop-opacity="0"/>
</linearGradient>
<linearGradient id="paint8_linear" x1="-2.74891" y1="44.6608" x2="60.8543" y2="23.5029" gradientUnits="userSpaceOnUse">
<stop stop-color="#D9E8BC"/>
<stop offset="1" stop-color="#4FD5DF"/>
</linearGradient>
<linearGradient id="paint9_linear" x1="23.5573" y1="66.6515" x2="37.8681" y2="-3.08061" gradientUnits="userSpaceOnUse">
<stop stop-color="#1C75BC" stop-opacity="0"/>
<stop offset="0.06" stop-color="#458EC5" stop-opacity="0.18"/>
<stop offset="0.15" stop-color="#7DB0D2" stop-opacity="0.43"/>
<stop offset="0.24" stop-color="#ABCCDC" stop-opacity="0.63"/>
<stop offset="0.32" stop-color="#D0E2E4" stop-opacity="0.79"/>
<stop offset="0.39" stop-color="#EAF2EA" stop-opacity="0.91"/>
<stop offset="0.45" stop-color="#F9FCEE" stop-opacity="0.98"/>
<stop offset="0.5" stop-color="#FFFFEF"/>
<stop offset="0.59" stop-color="#FDFFEF" stop-opacity="0.99"/>
<stop offset="0.66" stop-color="#F6FDEE" stop-opacity="0.95"/>
<stop offset="0.72" stop-color="#ECFAED" stop-opacity="0.89"/>
<stop offset="0.77" stop-color="#DCF7EC" stop-opacity="0.8"/>
<stop offset="0.82" stop-color="#C8F2EA" stop-opacity="0.69"/>
<stop offset="0.87" stop-color="#AFECE8" stop-opacity="0.55"/>
<stop offset="0.92" stop-color="#92E5E5" stop-opacity="0.38"/>
<stop offset="0.96" stop-color="#71DDE2" stop-opacity="0.19"/>
<stop offset="1" stop-color="#4FD5DF" stop-opacity="0"/>
</linearGradient>
<linearGradient id="paint10_linear" x1="22.9371" y1="77.7444" x2="65.9686" y2="63.4298" gradientUnits="userSpaceOnUse">
<stop stop-color="#EE2A7B" stop-opacity="0"/>
<stop offset="0.25" stop-color="#D32673" stop-opacity="0.34"/>
<stop offset="0.49" stop-color="#BC236C" stop-opacity="0.62"/>
<stop offset="0.7" stop-color="#AC2167" stop-opacity="0.83"/>
<stop offset="0.88" stop-color="#A21F64" stop-opacity="0.95"/>
<stop offset="1" stop-color="#9E1F63"/>
</linearGradient>
<linearGradient id="paint11_linear" x1="24.6735" y1="77.1668" x2="68.3503" y2="62.6375" gradientUnits="userSpaceOnUse">
<stop stop-color="#EE2A7B" stop-opacity="0"/>
<stop offset="0.03" stop-color="#F0478D" stop-opacity="0.14"/>
<stop offset="0.08" stop-color="#F472A8" stop-opacity="0.34"/>
<stop offset="0.13" stop-color="#F798BF" stop-opacity="0.51"/>
<stop offset="0.18" stop-color="#F9B8D3" stop-opacity="0.66"/>
<stop offset="0.24" stop-color="#FBD1E3" stop-opacity="0.79"/>
<stop offset="0.3" stop-color="#FDE6EF" stop-opacity="0.88"/>
<stop offset="0.36" stop-color="#FEF4F8" stop-opacity="0.95"/>
<stop offset="0.42" stop-color="#FFFCFD" stop-opacity="0.99"/>
<stop offset="0.5" stop-color="white"/>
<stop offset="0.56" stop-color="#FDFBFC" stop-opacity="0.98"/>
<stop offset="0.62" stop-color="#F9F0F5" stop-opacity="0.93"/>
<stop offset="0.69" stop-color="#F1DEE8" stop-opacity="0.85"/>
<stop offset="0.75" stop-color="#E5C4D6" stop-opacity="0.74"/>
<stop offset="0.82" stop-color="#D7A3BF" stop-opacity="0.59"/>
<stop offset="0.88" stop-color="#C57AA2" stop-opacity="0.41"/>
<stop offset="0.95" stop-color="#B14B82" stop-opacity="0.2"/>
<stop offset="1" stop-color="#9E1F63" stop-opacity="0"/>
</linearGradient>
</defs>
</svg>
