<svg width="448" height="115" viewBox="0 0 448 115" fill="none" xmlns="http://www.w3.org/2000/svg">
<path d="M11.0694 114.525L17.9688 98.7392L0.769893 100.439L11.0694 114.525ZM446.309 0.262771C354.159 52.9667 247.304 63.4939 162.169 67.9759C119.68 70.2128 82.474 70.9472 55.4053 74.7144C41.8685 76.5984 30.7039 79.2588 22.6096 83.3281C14.478 87.416 9.26361 93.0286 8.05801 100.833L11.0212 101.337C12.0317 94.795 16.3724 89.8433 23.9879 86.0148C31.6407 82.1675 42.4153 79.5593 55.8629 77.6877C82.763 73.9439 119.707 73.2197 162.372 70.9735C247.548 66.4893 355.025 55.9517 447.827 2.87485L446.309 0.262771Z" fill="white"/>
</svg>
