<svg id="Слой_1" data-name="Слой 1" xmlns="http://www.w3.org/2000/svg" xmlns:xlink="http://www.w3.org/1999/xlink" viewBox="0 0 212 137"><defs><style>.cls-1{fill:none;}.cls-2{clip-path:url(#clip-path);}.cls-3{fill:url(#Безымянный_градиент_16);}</style><clipPath id="clip-path" transform="translate(20.5 34)"><polyline class="cls-1" points="1 66.5 39 0.5 68 0.5 77 17.5 78 17.5 87 0.5 116 0.5 154 66.5 154 67.5 140 91.5 111 91.5 102 75.5 101 75.5 92 91.5 63 91.5 54 75.5 53 75.5 45 91.5 15 91.5 1 66.5"/></clipPath><linearGradient id="Безымянный_градиент_16" x1="-20.5" y1="34.5" x2="191.5" y2="34.5" gradientUnits="userSpaceOnUse"><stop offset="0.18" stop-color="#53cceb"/><stop offset="1" stop-color="#ca00e3"/></linearGradient></defs><title>logo7878</title><g class="cls-2"><path class="cls-3" d="M-20.5-34V103h212V-34ZM63,8.5l10,17-7,12H65L48,8.5Zm-23,75H25l17-30,8,14Zm47,0H72l17-30,8,14Zm26-4-23-40H89l-23,40H65l-23-40H41l-23,40H17l-7-13,31-55h1l23,41h1l23-40h1l31,54v1l-7,12Zm23,4H121l7-13h15Zm-8-21L96,8.5h15l32,54Z" transform="translate(20.5 34)"/></g></svg>