<svg width="42" height="38" viewBox="0 0 42 38" fill="none" xmlns="http://www.w3.org/2000/svg">
<path d="M41.9169 24.0238C41.4128 23.8238 40.932 23.5697 40.4831 23.266C40.044 22.9693 39.6441 22.619 39.2927 22.223C38.7783 21.6368 38.3571 20.9758 38.0436 20.2626C39.1725 18.238 39.7626 15.9593 39.7578 13.6433C39.7462 10.0429 38.3106 6.59199 35.7623 4.0385C33.2141 1.485 29.7583 0.0347346 26.1438 0.00166237C23.0082 -0.0175523 19.9608 1.03469 17.5099 2.98294C15.059 4.93119 13.3529 7.65764 12.6761 10.7074C9.65598 11.4481 6.97136 13.1737 5.04942 15.6095C3.12747 18.0454 2.07858 21.0515 2.06982 24.1496C2.06778 26.2665 2.55303 28.3555 3.48823 30.2564C3.30086 30.5943 3.07669 30.9107 2.81982 31.1998C2.56544 31.486 2.27631 31.7396 1.95899 31.9546C1.62804 32.1785 1.27319 32.3653 0.900969 32.5115C0.645809 32.604 0.424156 32.77 0.264235 32.9886C0.104315 33.2072 0.0133707 33.4683 0.00311264 33.7386C-0.00144445 34.021 0.0792258 34.2983 0.234626 34.5346C0.390027 34.7709 0.612974 34.9553 0.874743 35.064L1.04422 35.1437C1.1551 35.1944 1.26754 35.248 1.38458 35.2971C1.76394 35.4552 2.15402 35.5864 2.55193 35.6898C3.24824 35.8731 3.96337 35.9761 4.6833 35.9967C5.4186 36.0167 6.15414 35.9654 6.87944 35.8433C7.27369 35.7774 7.68335 35.6899 8.10224 35.5795C10.4137 37.1681 13.1573 38.0154 15.9656 38.0078C19.1839 38.0035 22.3014 36.8885 24.7874 34.8527C27.2734 32.817 28.9745 29.9861 29.6012 26.8418C31.3121 26.3877 32.918 25.6062 34.3291 24.5408C34.9285 24.7268 35.5397 24.8729 36.1586 24.9781C36.8568 25.0977 37.5649 25.1491 38.2731 25.1314C38.9492 25.1147 39.6211 25.0201 40.2752 24.8492C40.6464 24.7534 41.0102 24.6313 41.364 24.4841C41.5411 24.4089 41.7105 24.3306 41.8845 24.2463C41.9846 24.188 42.0724 24.0836 41.9169 24.0238ZM18.6623 11.8609C18.8979 11.8611 19.1312 11.9076 19.3487 11.9976C19.5663 12.0876 19.764 12.2193 19.9305 12.3854C20.097 12.5515 20.2289 12.7486 20.3189 12.9655C20.4089 13.1824 20.4551 13.4148 20.4549 13.6495C20.4551 13.8842 20.4089 14.1167 20.3189 14.3336C20.2289 14.5505 20.097 14.7476 19.9305 14.9137C19.764 15.0798 19.5663 15.2115 19.3487 15.3015C19.1312 15.3915 18.8979 15.438 18.6623 15.4382C18.4264 15.4384 18.1928 15.3922 17.9748 15.3024C17.7568 15.2126 17.5588 15.0808 17.392 14.9146C17.2252 14.7485 17.093 14.5512 17.0029 14.3341C16.9127 14.117 16.8664 13.8845 16.8666 13.6495C16.8662 13.1761 17.0543 12.7218 17.3899 12.3865C17.7254 12.0512 18.1808 11.8621 18.6561 11.8609H18.6623ZM15.9718 35.4398C13.5016 35.4471 11.098 34.6422 9.13404 33.1497L8.60888 32.7553L7.98051 32.9471C7.48086 33.1014 6.97156 33.223 6.45589 33.3107C5.89687 33.4091 5.32937 33.4511 4.76188 33.4363C4.59094 33.4363 4.42154 33.421 4.25214 33.4041C4.42553 33.245 4.59052 33.0771 4.74647 32.901C5.30748 32.2643 5.76715 31.5459 6.10942 30.7704L6.3743 30.1843L6.06627 29.6229C5.13467 27.9487 4.64752 26.0653 4.65096 24.1511C4.65161 21.1734 5.83798 18.3174 7.94978 16.2097C9.18906 14.9665 10.7009 14.0267 12.3666 13.464C12.3666 13.5253 12.3666 13.5882 12.3666 13.6495C12.3666 17.2704 13.8106 20.7429 16.3811 23.3033C18.9515 25.8636 22.4377 27.3021 26.0729 27.3021C26.3409 27.3021 26.6058 27.2928 26.8706 27.279C26.1864 29.6327 24.7529 31.7012 22.7861 33.1731C20.8193 34.6449 18.4257 35.4404 15.9656 35.4398H15.9718ZM26.1053 15.4367C25.8695 15.4369 25.6358 15.3907 25.4178 15.3009C25.1999 15.2111 25.0018 15.0793 24.8351 14.9131C24.6683 14.747 24.5361 14.5497 24.4459 14.3326C24.3557 14.1155 24.3094 13.883 24.3096 13.648C24.3096 13.1737 24.4988 12.7186 24.8355 12.3831C25.1723 12.0477 25.6291 11.8594 26.1053 11.8594C26.3412 11.8592 26.5748 11.9053 26.7927 11.9951C27.0107 12.0849 27.2087 12.2166 27.3755 12.3828C27.5423 12.5489 27.6745 12.7461 27.7646 12.9632C27.8548 13.1803 27.9011 13.4131 27.9009 13.648C27.9011 13.8836 27.8546 14.1169 27.764 14.3345C27.6733 14.5521 27.5404 14.7497 27.3728 14.9159C27.2052 15.0822 27.0062 15.2136 26.7874 15.303C26.5685 15.3924 26.3341 15.4379 26.0976 15.4367H26.1053ZM33.5468 15.4367C33.3109 15.4369 33.0773 15.3907 32.8594 15.3009C32.6414 15.2111 32.4434 15.0793 32.2766 14.9131C32.1098 14.747 31.9775 14.5497 31.8873 14.3326C31.7972 14.1155 31.7508 13.883 31.751 13.648C31.7508 13.4131 31.7972 13.1803 31.8873 12.9632C31.9775 12.7461 32.1098 12.5489 32.2766 12.3828C32.4434 12.2166 32.6414 12.0849 32.8594 11.9951C33.0773 11.9053 33.3109 11.8592 33.5468 11.8594C34.023 11.8594 34.4797 12.0477 34.8165 12.3831C35.1532 12.7186 35.3425 13.1737 35.3425 13.648C35.3425 13.8834 35.2958 14.1165 35.2051 14.3339C35.1145 14.5514 34.9817 14.7486 34.8143 14.9148C34.6469 15.081 34.4482 15.2127 34.2296 15.3022C34.0111 15.3918 33.7769 15.4375 33.5406 15.4367H33.5468Z" fill="white"/>
</svg>
