<svg width="24" height="54" viewBox="0 0 24 54" fill="none" xmlns="http://www.w3.org/2000/svg">
<path opacity="0.9" d="M13.8923 4.4853L13.8923 4.48524C13.3847 3.99064 12.7112 3.71875 12 3.71875C11.2889 3.71875 10.6153 3.99063 10.1078 4.48528L10.1078 4.48529L3.38194 11.0414C2.72655 11.6803 1.65269 11.6848 0.991464 11.0508C0.339882 10.4261 0.335749 9.41632 0.981754 8.78671L0.981782 8.78668L7.70754 2.23054C7.70754 2.23054 7.70755 2.23054 7.70755 2.23053C8.85155 1.11546 10.3741 0.5 12 0.5C13.626 0.5 15.1485 1.11547 16.2925 2.23054L23.0183 8.78668L23.3673 8.42864L23.0183 8.78668C23.6642 9.41633 23.6601 10.4261 23.0086 11.0508L23.0085 11.0509C22.6817 11.3643 22.2523 11.5234 21.8183 11.5234C21.3794 11.5234 20.9459 11.361 20.6181 11.0414L13.8923 4.4853ZM13.8923 49.5148L13.8923 49.5147L20.6181 42.9586C21.2735 42.3197 22.3473 42.3153 23.0086 42.9492C23.6601 43.5739 23.6642 44.5837 23.0183 45.2133L16.2925 51.7695C15.1485 52.8845 13.626 53.5 12 53.5C10.3741 53.5 8.85154 52.8845 7.70755 51.7695L0.981781 45.2133L0.981754 45.2133C0.335749 44.5837 0.339882 43.5739 0.991464 42.9492C1.65265 42.3153 2.72652 42.3198 3.38194 42.9586C3.38195 42.9586 3.38196 42.9586 3.38196 42.9586L10.1078 49.5147L10.4568 49.1567L10.1078 49.5147C10.6153 50.0094 11.2889 50.2812 12 50.2812C12.7112 50.2812 13.3847 50.0094 13.8923 49.5148ZM11.8909 20.0117C15.8415 20.0117 19.0273 23.1156 19.0273 26.8945C19.0273 30.6735 15.8415 33.7773 11.8909 33.7773C7.94034 33.7773 4.75458 30.6735 4.75458 26.8945C4.75458 23.1156 7.94034 20.0117 11.8909 20.0117ZM11.8909 30.5586C13.9556 30.5586 15.6636 28.9311 15.6636 26.8945C15.6636 24.8579 13.9556 23.2305 11.8909 23.2305C9.82626 23.2305 8.11821 24.8579 8.11821 26.8945C8.11821 28.9311 9.82626 30.5586 11.8909 30.5586Z" fill="white" stroke="black"/>
</svg>
