<svg width="63" height="38" viewBox="0 0 63 38" fill="none" xmlns="http://www.w3.org/2000/svg">
<path d="M1.32982 21.1213C14.6324 21.5305 27.9263 21.8965 41.225 22.4194C44.9475 22.5657 48.6621 22.66 52.3761 22.9638C53.1938 23.0306 54.4522 23.3299 55.2957 23.0634C56.0293 22.8317 53.7575 22.8923 53.0223 22.6658C51.9848 22.3463 51.412 21.9812 51.4534 20.8675" stroke="white" stroke-linecap="round" stroke-linejoin="round"/>
<path d="M41.874 15.3185C45.2411 16.6 48.8199 17.9077 51.8707 19.4023C53.236 20.0712 54.7288 20.7046 56.4 21.1447C57.4732 21.4273 58.3784 21.983 59.5095 22.1934C61.0046 22.4715 59.4548 22.4648 58.8932 22.5283C56.3901 22.8113 53.9609 24.4868 52.3646 25.4337C50.2011 26.717 48.0434 28.0044 46.0513 29.3574C44.7399 30.248 43.1715 31.0288 42.0686 31.9968C41.4886 32.5059 41.2026 30.3388 41.2642 30.0732" stroke="white" stroke-linecap="round" stroke-linejoin="round"/>
<path d="M41.7016 18.7589C41.5744 17.8526 41.1906 16.9183 41.3995 16.0182C41.4186 15.9361 41.6661 14.8868 41.873 15.0258C42.2267 15.2633 41.6399 16.5971 41.6867 16.8767C42.0156 18.8449 42.0514 20.837 42.2549 22.8124C42.4459 24.6671 41.8541 30.2284 42.282 28.3847C42.5101 27.4017 43.0448 26.4454 43.2751 25.4531C43.3809 24.9972 43.6983 23.6295 43.5925 24.0854C43.4116 24.8649 43.2556 25.6473 43.0324 26.4238C42.6539 27.7409 42.1322 29.0305 41.8247 30.3553C41.1753 33.1538 43.5613 24.7693 43.6189 21.9502C43.6426 20.7923 43.549 17.3276 43.3298 18.4798C42.8424 21.0427 42.6913 23.8587 42.8913 26.433C42.934 26.9826 43.103 27.5417 42.9755 28.0913C42.805 28.8262 43.319 26.6209 43.4186 25.8824C43.8041 23.0255 43.7326 20.3145 43.0953 17.4693C43.083 17.4143 42.8314 16.3157 42.7901 16.8379C42.6586 18.5012 42.9802 20.1898 43.1735 21.8486C43.4019 23.8095 43.4059 25.7743 43.6665 27.7338C43.733 28.2336 43.7828 29.8692 44.1516 28.4133C45.0027 25.0531 44.849 21.3751 43.6205 18.0509C43.5835 17.951 42.9853 16.0073 42.4954 16.1615C41.3056 16.5361 41.955 19.959 41.9728 20.5844C42.0592 23.6074 42.7917 26.6312 42.9094 29.6486C43.0063 32.1318 43.345 24.6863 43.646 22.2076C43.7671 21.2109 43.8682 20.2065 43.8558 19.2075C43.8421 18.0941 43.8102 19.3468 43.8374 19.736C43.8724 20.2373 43.7185 28.7408 44.4572 28.7433C46.6173 28.7507 47.4206 20.3786 47.2413 19.1415C47.1071 18.2149 46.2249 20.0849 46.1971 20.1978C45.7838 21.8772 45.8772 23.5799 45.8022 25.2681C45.7745 25.8912 45.9318 26.4877 46.0008 27.1073C46.1077 28.0675 46.7711 25.221 46.9216 24.2623C47.2211 22.3539 48.2589 16.6829 47.2293 18.5198C45.9684 20.7693 46.0426 23.5915 46.362 25.925C46.6446 27.9898 47.6506 21.8168 47.5699 19.747C47.5465 19.148 48.1308 17.5111 47.3608 17.9529C47.0856 18.1108 47.0692 18.5357 47.0272 18.7169C46.7737 19.8093 46.6649 20.913 46.5752 22.0119C46.4554 23.4814 46.5414 24.9534 46.4204 26.4219C46.4057 26.6006 46.0884 28.4298 46.7464 27.3377C48.2329 24.8707 49.5922 17.0963 48.9961 19.665C48.6247 21.2651 48.4789 22.8619 48.3323 24.4715C48.3133 24.6804 48.061 27.7661 48.6064 26.4342C49.2257 24.9222 49.593 23.3764 49.8125 21.836C49.8494 21.5772 50.4697 19.3928 49.8468 20.7149C49.3952 21.6737 49.192 22.675 49.025 23.6575C48.9927 23.8475 48.6646 25.8595 49.1234 24.8053C49.7237 23.4262 50.6662 19.2053 50.3403 20.6096C50.2311 21.0802 48.5934 25.6663 49.2269 25.7069C50.021 25.7578 50.8101 22.5957 50.8888 22.2885C51.0834 21.5292 51.6123 19.271 51.1261 19.9934C50.6108 20.759 50.6959 21.7724 50.5097 22.5747C50.4691 22.7497 50.1755 24.9124 50.2874 24.88C51.4748 24.5356 51.76 22.482 51.9259 21.8619C52.0006 21.5825 52.2325 20.0622 52.2324 21.2149C52.2323 22.1248 51.672 23.0721 51.818 23.9736C51.9349 24.6953 53.1223 22.5563 53.1867 22.4176C54.1013 20.4485 53.1888 23.157 53.0488 23.7603C52.8619 24.5656 54.7092 20.6478 54.5224 21.4531C54.3972 21.9922 53.5648 24.6898 54.8233 22.8513C55.1653 22.3517 55.921 20.8161 55.7987 21.3432C55.6703 21.8961 55.0297 22.4737 55.1109 23.0341C55.176 23.4834 55.6802 22.1809 55.8458 21.7389C56.0241 21.2629 56.1812 20.4666 54.8418 20.8252C53.5028 21.1837 52.4601 21.793 51.4925 22.382C50.9245 22.7278 49.6428 23.9822 48.7686 24.0885C48.2761 24.1485 47.1977 20.4035 47.1031 20.0367C46.6603 18.3199 45.6231 23.4199 45.224 25.1397C45.043 25.9194 45.087 24.7367 45.0537 24.5261C44.8264 23.0905 44.9499 21.642 44.6657 20.2092C44.4191 18.9658 44.1537 20.8775 44.1338 21.0791C43.9947 22.4818 43.3664 24.0475 43.9038 25.4386C44.1326 26.0307 44.4349 25.3396 44.5351 25.1138C45.139 23.7524 45.1466 22.2953 45.2685 20.9053C45.3222 20.2932 45.5234 18.4597 45.3822 19.068C45.1234 20.1831 45.3584 21.2365 45.559 22.3486C45.7193 23.2373 45.4323 24.5171 46.3629 25.3223C46.889 25.7776 47.7314 23.6173 47.7579 23.5032C47.9438 22.7019 47.8913 21.8647 47.7163 21.0623C47.499 20.0659 46.6986 21.6969 46.6086 21.8679C46.0491 22.9315 45.7982 24.0129 45.5446 25.1055C45.3795 25.8171 45.6641 25.6297 45.8544 25.0432C46.3017 23.6648 46.324 22.2301 46.4659 20.836C46.485 20.6488 46.4632 18.0828 46.2798 19.3173C46.0339 20.9724 46.0188 22.6382 45.8887 24.2965C45.8186 25.1897 45.7604 26.0837 45.6664 26.9762C45.6282 27.3391 44.8808 28.1502 45.5527 28.0648C46.2678 27.9738 46.3426 25.5072 46.3796 25.2504C46.6424 23.4243 46.4407 21.5023 47.129 19.7005C47.5107 18.7011 47.323 21.737 47.358 22.7561C47.3722 23.1697 46.9103 26.725 47.9334 26.939C48.5485 27.0676 51.6459 21.1109 52.0571 20.4731C52.3633 19.9983 51.709 20.8921 51.6621 20.9774C51.3608 21.5256 51.2485 22.0859 51.1176 22.6502C51.065 22.8765 51.4238 22.2037 51.551 22.1301C52.0529 21.8398 51.7633 22.9102 51.7479 23.3025C51.7253 23.8807 50.9521 25.2512 51.9716 25.0336C52.8373 24.8488 53.3 23.2383 53.5741 22.8443C53.6501 22.7351 54.5927 21.1501 54.42 21.894C54.2603 22.5822 54.4075 23.6261 53.8366 24.2583C53.7199 24.3876 51.9605 22.5362 51.809 22.3658" stroke="white" stroke-linecap="round" stroke-linejoin="round"/>
</svg>